<?xml version="1.0" encoding="utf-8"?>
<!-- Generator: Adobe Illustrator 26.5.1, SVG Export Plug-In . SVG Version: 6.00 Build 0)  -->
<svg version="1.1" id="Слой_1" xmlns="http://www.w3.org/2000/svg" xmlns:xlink="http://www.w3.org/1999/xlink" x="0px" y="0px"
	 viewBox="0 0 1974.05542 1644.79382" style="enable-background:new 0 0 1974.05542 1644.79382;" xml:space="preserve">
<style type="text/css">
	.st0{fill:#FFFFFF;}
	.st1{fill:#BDFFCE;}
	.st2{fill:#282828;}
	.st3{fill:#5BC479;}
</style>
<g>
	<path class="st0" d="M1802.66602,226.29169c-0.48535-4.57593-0.97729-9.17743-1.4834-13.83337
		c-0.19336-1.77637-1.69238-3.12207-3.47949-3.12207c-3.83203,0-7.7312,0.00342-11.68579,0.00983
		c-22.52576-21.77399-48.03235-42.0376-76.70874-60.55402c-403.91785-260.80902-977.77563-37.08405-1323.33179,313.71704h-63.49487
		c-8.62305,0-15.63867,7.01514-15.63867,15.63818v71.75684c-12.74347,15.36633-25.04413,30.89923-36.8562,46.5799l-5.20581-43.71954
		c-0.22852-1.91943-1.97363-3.29102-3.88965-3.06152c-1.91943,0.22852-3.29004,1.97021-3.06152,3.88965l6.07635,51.03058
		c-5.32629,7.19446-10.53987,14.42114-15.66042,21.67169c-3.11487-7.86285-6.69983-16.92596-9.61176-24.29407
		c-0.71045-1.79736-2.7417-2.68018-4.5415-1.96826c-1.79736,0.71045-2.67871,2.74365-1.96826,4.5415
		c0,0,4.20947,10.65137,8.42676,21.30176c0.97931,2.47333,1.95679,4.94092,2.8844,7.28088
		c-6.34528,9.12299-12.5235,18.28693-18.53198,27.487h-90.72925c-6.7038,0-12.13824,5.43451-12.13824,12.13831v103.6098
		c0,6.7038,5.43445,12.13824,12.13824,12.13824h19.61407c-4.77966,10.40771-9.31073,20.83264-13.60486,31.26764H68.12987
		c-8.72998,0-16.90625,3.87646-22.43213,10.63525c-5.52539,6.75879-7.69971,15.54199-5.96436,24.09814l49.7002,245.05634
		c2.89484,39.54016,10.5882,78.32739,23.51959,115.9679l24.57562,121.17505c2.72803,13.45215,14.67041,23.21582,28.396,23.21582
		h28.48694c28.73706,35.00208,63.7137,68.20642,105.40492,99.18115c-0.43494,0.58337-0.70142,1.29919-0.70142,2.08252
		c0,1.93262,1.56689,3.5,3.5,3.5h5.53241l82.50543,52.10522c-0.34229,0.54089-0.54761,1.17725-0.54761,1.8645
		c0,1.93262,1.56689,3.5,3.5,3.5h6.44885c0.02893,0.01538,0.05731,0.03113,0.08624,0.04663
		c3.05597,1.6311,6.11475,3.23438,9.17505,4.82202c0.9574,0.49658,1.91553,0.98462,2.87329,1.47705
		c2.13861,1.09949,4.27802,2.19043,6.41864,3.2688c1.07837,0.54321,2.15704,1.0835,3.2359,1.62134
		c2.12561,1.05981,4.25232,2.10718,6.37982,3.14624c0.98071,0.47888,1.96112,0.96167,2.9422,1.43628
		c2.8623,1.38428,5.72601,2.75244,8.59155,4.09961c0.20929,0.09839,0.41827,0.2002,0.62762,0.29834
		c3.06317,1.43701,6.12866,2.8479,9.19543,4.24255c0.96472,0.43872,1.93011,0.86865,2.8952,1.3031
		c2.14026,0.96375,4.28107,1.91968,6.42303,2.86279c1.1076,0.48779,2.21545,0.97217,3.32343,1.45435
		c2.0871,0.90845,4.17505,1.80566,6.26367,2.69482c1.03796,0.44177,2.07556,0.88696,3.11389,1.32397
		c2.64752,1.11462,5.2962,2.21289,7.94604,3.29663c0.4411,0.18042,0.88171,0.3667,1.32294,0.54626
		c3.05066,1.24158,6.10309,2.45862,9.15662,3.65955c1.00397,0.39478,2.00861,0.78027,3.01288,1.17065
		c2.10107,0.81702,4.2027,1.6272,6.30511,2.42505c1.16486,0.44202,2.32996,0.87988,3.49518,1.31604
		c2.01251,0.7533,4.02563,1.4967,6.03925,2.23254c1.12598,0.41162,2.25171,0.82568,3.37799,1.23169
		c2.4129,0.87012,4.82678,1.72461,7.24115,2.56982c0.68475,0.23975,1.36908,0.48682,2.05396,0.72461
		c3.01898,1.04773,6.03918,2.07324,9.0603,3.08252c1.07739,0.35986,2.1554,0.70972,3.23309,1.0647
		c2.02325,0.6665,4.04675,1.32788,6.07092,1.97729c1.24701,0.40015,2.49432,0.79529,3.7417,1.18896
		c1.90961,0.60254,3.8197,1.19641,5.73004,1.78369c1.23096,0.37866,2.46185,0.75879,3.69305,1.13086
		c2.17633,0.65796,4.35333,1.30151,6.53058,1.93982c0.92621,0.27161,1.85211,0.55103,2.7785,0.81897
		c2.96997,0.85938,5.9408,1.69812,8.91223,2.52112c1.18683,0.32874,2.37415,0.64612,3.56122,0.96912
		c1.90894,0.51941,3.81799,1.03528,5.72742,1.53979c1.34485,0.35535,2.68988,0.70483,4.03497,1.05298
		c1.78607,0.46204,3.57227,0.91687,5.35876,1.36597c1.35156,0.33997,2.70312,0.68042,4.05487,1.01294
		c1.93433,0.47583,3.86896,0.93872,5.80365,1.39941c1.16742,0.27808,2.33459,0.5636,3.5022,0.83618
		c2.90686,0.67847,5.81427,1.33875,8.72198,1.98364c1.33234,0.29541,2.66492,0.57837,3.99744,0.8667
		c1.75092,0.37903,3.50183,0.75659,5.25299,1.12341c1.47015,0.30798,2.94031,0.60901,4.41064,0.90857
		c1.63367,0.33276,3.26727,0.65967,4.90106,0.98193c1.48608,0.29321,2.97211,0.58594,4.45825,0.87036
		c1.69049,0.32361,3.38116,0.63599,5.07184,0.94849c1.40826,0.26025,2.81641,0.52686,4.22473,0.7793
		c2.82721,0.50684,5.6546,0.99768,8.48212,1.47363c1.51776,0.25537,3.03552,0.4967,4.55328,0.74329
		c1.55371,0.25232,3.10736,0.50525,4.66113,0.74829c1.60626,0.25134,3.21246,0.49451,4.81873,0.73596
		c1.46564,0.22034,2.93121,0.4364,4.39679,0.64844c1.63428,0.23645,3.26849,0.47131,4.90271,0.69751
		c1.44446,0.19995,2.88892,0.39062,4.33337,0.58276c1.63934,0.21802,3.27875,0.4408,4.91797,0.64868
		c2.11719,0.26831,4.23425,0.52075,6.35126,0.77209c2.35272,0.27942,4.7052,0.54602,7.05762,0.80457
		c1.33051,0.14624,2.66101,0.29456,3.99139,0.43408c1.74554,0.18335,3.49091,0.35718,5.23621,0.52905
		c1.29865,0.12781,2.59717,0.25269,3.89569,0.37427c1.77258,0.16577,3.54498,0.32886,5.31732,0.48303
		c1.22455,0.10657,2.44904,0.20557,3.67346,0.30652c6.46747,0.53345,12.93286,0.98926,19.39569,1.3689
		c1.07123,0.06274,2.14258,0.12891,3.21362,0.18774c1.89807,0.104,3.79565,0.19763,5.69324,0.28857
		c1.1145,0.05322,2.22894,0.10498,3.34326,0.15381c1.91754,0.08398,3.83484,0.16382,5.75183,0.23462
		c1.01318,0.03735,2.02618,0.06885,3.03918,0.10242c6.82654,0.22693,13.64917,0.36975,20.46729,0.42932
		c0.79285,0.00684,1.58582,0.01758,2.37848,0.02222c2.0426,0.01196,4.08447,0.01245,6.12622,0.00977
		c0.94501-0.00146,1.88989-0.00342,2.83472-0.00781c2.04309-0.00977,4.08575-0.02502,6.12793-0.04956
		c0.83099-0.01001,1.66168-0.02441,2.49249-0.03687c7.17505-0.10718,14.34406-0.30396,21.5061-0.5918
		c0.49866-0.02002,0.99762-0.03687,1.49628-0.05786c2.1748-0.09106,4.34857-0.1947,6.52209-0.30237
		c0.78882-0.03906,1.57758-0.07812,2.36621-0.11938c2.15094-0.11243,4.30127-0.23169,6.45087-0.36023
		c0.68347-0.04077,1.36658-0.08496,2.04993-0.12744c7.4917-0.4657,14.97491-1.02563,22.44843-1.68384
		c0.20953-0.01831,0.41919-0.03516,0.62872-0.05371c2.28595-0.203,4.5705-0.41895,6.85455-0.63977
		c0.65411-0.06323,1.30829-0.1261,1.96228-0.1908c2.23486-0.22095,4.46887-0.44958,6.70197-0.68762
		c0.57141-0.06091,1.14246-0.12439,1.71375-0.1864c10.06787-1.09277,20.11639-2.35693,30.14319-3.78906
		c0.57275-0.08179,1.14569-0.16284,1.71832-0.24585c2.27258-0.32886,4.54413-0.66602,6.81445-1.01221
		c0.18378-0.02808,0.36786-0.05396,0.55164-0.08203v-0.00317c37.30927-5.71252,74.30237-13.73633,110.84192-23.86865
		c0.00439-0.00122,0.00879-0.00232,0.01318-0.00354c2.96997-0.82361,5.93689-1.66113,8.90076-2.51245
		c0.00073-0.00012,0.00134-0.00037,0.00208-0.00061c29.64282-8.51465,58.97705-18.41028,87.92957-29.57935
		c0.03357-0.01306,0.06714-0.02588,0.10071-0.03882c2.86499-1.10559,5.7262-2.22351,8.58362-3.35388
		c0.0376-0.01489,0.07532-0.02991,0.11292-0.0448c25.89783-10.24829,51.4812-21.51001,76.69727-33.70874
		c0.13074-0.06323,0.2616-0.1261,0.39233-0.18933c2.64136-1.27893,5.2782-2.56897,7.91138-3.86829
		c0.23242-0.11475,0.46497-0.22949,0.69727-0.34424c2.59265-1.28149,5.1814-2.57251,7.76599-3.87378
		c0.23645-0.1189,0.47253-0.23853,0.70886-0.35767c2.61255-1.31738,5.22131-2.64355,7.82556-3.98071
		c0.1394-0.07166,0.27869-0.14392,0.41809-0.21558c19.21765-9.87805,38.20605-20.29395,56.94104-31.21338
		c0.24341-0.14185,0.4873-0.28259,0.73059-0.42456c2.3811-1.39001,4.75696-2.78979,7.12976-4.1958
		c0.42712-0.25317,0.85461-0.50562,1.28149-0.75916c2.27625-1.35242,4.5481-2.71301,6.81653-4.0802
		c0.50854-0.30652,1.01709-0.61316,1.52527-0.92041c2.23047-1.34863,4.45728-2.70361,6.6803-4.06628
		c0.51501-0.3158,1.02954-0.63269,1.54419-0.94922c2.24146-1.37842,4.47998-2.76233,6.71362-4.15491
		c0.43555-0.27148,0.87012-0.54492,1.30542-0.81689c2.32239-1.4519,4.64197-2.90857,6.95569-4.37561
		c0.2207-0.13989,0.44043-0.28113,0.66101-0.42114c12.84424-8.15454,25.55469-16.54224,38.12378-25.15088
		c0.32947-0.22559,0.66016-0.44946,0.98938-0.67542c2.1106-1.44836,4.21521-2.90601,6.31787-4.36682
		c0.60071-0.41736,1.20239-0.83313,1.80249-1.25146c1.97571-1.37744,3.94629-2.76221,5.91479-4.15051
		c0.7157-0.50476,1.43164-1.00903,2.14648-1.51526c1.90649-1.3501,3.80884-2.70593,5.7085-4.06616
		c0.76294-0.54626,1.52539-1.09338,2.28735-1.64136c1.87048-1.34534,3.73804-2.69482,5.60181-4.0498
		c0.771-0.56042,1.54053-1.1228,2.31018-1.68494c1.87024-1.36584,3.7384-2.7345,5.60181-4.10986
		c0.71912-0.53076,1.43616-1.06445,2.15417-1.59668c1.91504-1.41931,3.82837-2.84058,5.73584-4.2699
		c0.5835-0.43726,1.16455-0.87781,1.74731-1.31592c2.04639-1.53857,4.09131-3.07898,6.12891-4.62903
		c0.09058-0.06885,0.18042-0.13831,0.27075-0.20715c7.20972-5.4873,14.36401-11.04712,21.46289-16.67493
		c0.2644-0.20959,0.53015-0.41724,0.79419-0.62695c1.88745-1.49854,3.76758-3.00586,5.64697-4.51404
		c0.69507-0.55786,1.39233-1.1134,2.08643-1.67261c1.73584-1.39856,3.4657-2.8042,5.1947-4.21106
		c0.83093-0.67603,1.66272-1.35083,2.49207-2.02869c1.65576-1.35339,3.30652-2.71228,4.95569-4.07324
		c0.89441-0.73804,1.7887-1.47607,2.68127-2.21631c1.61206-1.33691,3.22046-2.67786,4.82617-4.02185
		c0.91492-0.76575,1.82886-1.53271,2.7417-2.30078c1.58911-1.33691,3.17566-2.67651,4.75854-4.02026
		c0.91516-0.77686,1.82812-1.55603,2.74121-2.33521c1.58447-1.35217,3.1676-2.70569,4.74585-4.06458
		c0.88196-0.75952,1.76074-1.52222,2.64087-2.28369c1.60669-1.3905,3.21313-2.78137,4.81323-4.17871
		c0.78906-0.68921,1.57422-1.3822,2.36182-2.073c1.69055-1.48315,3.38135-2.96594,5.06445-4.45667
		c0.4353-0.38562,0.86768-0.77429,1.30249-1.1604c6.11182-5.427,12.17261-10.90479,18.18262-16.43018
		c0.54468-0.50085,1.09314-0.99805,1.63696-1.49963c-0.00024-0.00061-0.00037-0.0011-0.00061-0.00171
		C1880.16187,978.06641,2054.72217,496.67535,1802.66602,226.29169z"/>
	<g>
		<g>
			<path class="st1" d="M120.81172,1236.69592l-32.53711-160.4314C89.70232,1131.38428,100.15944,1185.21021,120.81172,1236.69592z"
				/>
		</g>
		<g>
			<path class="st1" d="M374.1962,1445.29663c-12.03589-14.25891-3.87439-34.96155-3.87439-34.96155l14.23489-53.8894H191.53835
				c29.89951,37.07825,66.73634,72.16968,111.06798,104.76453h103.23685
				C395.42953,1461.20959,386.22946,1459.55176,374.1962,1445.29663z"/>
		</g>
		<g>
			<g>
				<path class="st1" d="M1798.61169,221.97835l8.47888,85.29753c0,0,9.68323,134.98175,10.32166,175.12088
					c0.63843,40.13919,4.66333,78.88113,0,158.47849s-19.70935,107.15143-19.70935,107.15143l-267.99292,0.05945l1.42542-64.08746
					c-1.19067,3.00714-2.48816,6.02295-3.89966,8.88495c-0.06335,0.28192-0.1189,0.52228-0.17065,0.74341l0.49634,1.42743
					c0.57251,1.00635,0.9646,2.30786,1.24414,3.42877c1.41016,5.65039-0.84937,9.75824-1.64282,15.16229
					c-0.47351,3.22461,0.65344,6.71283,1.12817,10.1048c1.40515,10.03546-1.10559,18.83746-8.05786,26.31
					c-5.85193,6.29022-12.06189,12.29791-17.95459,18.5705c-6.38953,6.80084-12.89648,13.56024-20.22632,19.35974
					c-7.77039,6.14844-16.28577,11.11316-24.53503,16.56238c-7.13489,4.71307-13.57507,10.34259-21.07153,14.50946
					c-7.2179,4.0119-14.92688,7.14655-22.67175,10.03448c-4.27747,1.72223-8.69373,3.0274-12.61951,3.91125
					c-13.26514,2.9859-28.24207,2.03497-40.21729-4.81671c-20.01343-11.45117-20.23523-39.85822-10.85046-58.94604
					c2.9115-15.8515,8.25476-31.32654,15.65625-45.26691c11.28088-21.24695,26.57397-45.57379,48.02539-57.60834
					c13.16321-7.38458,25.20508,7.33374,21.0647,18.21918c3.58191-1.41705,7.21753-2.66644,10.89868-3.71967
					c3.80042-1.08734,7.63159-0.42365,10.82239,1.36395c9.39026-7.48218,19.71692-15.55371,31.31226-17.46783
					c4.02808-0.66504,8.0918-0.29877,11.73315,1.6947c0.47302,0.25897,1.22375,0.87817,1.93762,1.50006
					c0.05481-0.04846,0.10632-0.09265,0.17004-0.15173c0.69958-0.64709,2.98682-0.9881,3.92554-1.34106
					c2.82349-1.06213,5.57727-2.20099,8.50281-2.95929c6.59802-1.7113,14.13196,1.97986,17.28149,7.81451l1.51074-67.91504
					l-71.50549-2.08313c0,0-2.77808,0.92572,4.02747-91.13684c6.80542-92.06287-6.75879-293.48047-6.75879-293.48047
					l330.99963-3.77943c-23.41333-23.13815-50.1377-44.60722-80.38184-64.13593
					C1304.04688-112.88473,727.70215,113.19635,382.52505,466.009h181.267c6.70392,0,12.13818,5.4346,12.13818,12.13852v150.04041
					c0,12.17035-15.91528,16.76855-22.4057,6.47382l-22.13147-35.10168c-2.22321-3.52576-6.09961-5.66467-10.26788-5.66467
					H322.48166c-6.70358,0-12.13815-5.43457-12.13815-12.13818v-36.07318
					c-73.97649,88.44849-133.03011,182.63232-171.60542,277.61401h732.63855c12.11725,0,22.55743,8.53503,24.96594,20.41058
					l97.79492,482.19983c3.20105,15.7821-8.86243,30.53723-24.96558,30.53723H558.84222l-9.58685,36.9624l-10.38544,37.84814
					h117.15796l11.8985,11.24438l0.99939,12.09534l-3.43518,6.61426h336.96747v57.46948H393.5795
					c2.17773,1.18542,4.35748,2.37,6.56113,3.54639C1254.61707,1978.31848,2280.15308,725.11963,1798.61169,221.97835z
					 M706.05347,774.75635H624.802c-6.24908,0-11.26727-5.26862-10.85626-11.60498
					c0.37488-5.78217,5.43457-10.1546,11.22913-10.1546c3.18207,0,5.76129-2.57953,5.76129-5.76166v-50.95251
					c0-19.04895,15.44244-34.49109,34.49139-34.49109s34.49139,15.44214,34.49139,34.49109v50.95251
					c0,3.18213,2.57916,5.76166,5.76129,5.76166c5.79449,0,10.85425,4.37244,11.22913,10.1546
					C717.32037,769.4881,712.30182,774.75635,706.05347,774.75635z M968.82361,238.0925
					c-2.76477,6.03821-5.83997,12.19627-10.659,16.89775c-0.47278,0.46085-0.96185,0.89149-1.46124,1.29988
					c-2.00977,3.46335-3.50586,6.97052-3.80896,10.50259c-0.67236,7.82883,5.07068,18.24445,12.42303,21.79413
					c7.13721,3.44543,8.98627,13.5921,5.24231,19.99289c-4.20374,7.18735-12.88983,8.67181-19.99286,5.24234
					c-14.35345-6.92969-23.87494-23.36792-26.21472-39.18726c-6.76031-6.07803-11.0481-13.55624-8.87598-23.44992
					c1.54987-7.05917,5.99969-12.65379,9.46735-18.82614c4.51849-8.0433,8.8913-15.98302,15.15558-22.86688
					c3.47498-3.81862,7.60309-7.34673,12.3208-9.45773c-4.21442-15.09053-0.26099-33.97212,7.54059-46.80157
					c4.19983-6.90677,9.77985-13.43903,17.15076-17.03487c6.50507-3.17316,13.29498-3.93814,20.34985-4.989
					c7.83612-1.1674,15.67584,1.83942,17.97516,10.20578c1.90979,6.94994-2.39325,16.81175-10.20612,17.97549
					c-4.8894,0.72847-10.83667,0.74373-15.38043,2.91219c0.8291-0.39577-1.49146,1.33806-2.11499,2.03166
					c-1.87292,2.08347-3.46301,4.85919-4.57727,7.41212c-2.02405,4.6384-2.92114,9.68417-2.88696,14.71834
					c0.04114,6.03621,2.80029,11.50301,2.95404,17.5246c0.2135,8.35509-4.38672,15.8459-11.70856,19.75981
					c-0.65607,0.35062-1.3739,0.63615-2.11896,0.89215C971.13983,228.77322,970.83832,233.69284,968.82361,238.0925z
					 M1005.85736,415.43201c-5.73279-8.7233-9.14764-19.19803-8.12897-28.92535c0.29449-2.81192,1.15479-5.46945,2.52002-7.73221
					c-49.3877-72.57367-17.00427-201.24992,92.47656-229.81436c34.74475-9.06528,63.61938-10.29974,87.67847-5.66733
					c-0.73669-3.04169-1.61987-6.05614-2.65613-9.01448c-2.20532-2.66383-3.25854-5.54315-3.4248-8.37201
					c-0.15808-0.33501-0.3324-0.66073-0.49377-0.99375c-2.03259-1.98783-3.33752-4.58991-3.92786-7.37493
					c-7.38452-15.60583,16.67297-28.94759,26.00952-13.29461c3.53601,5.92863,6.33972,12.12123,8.58984,18.49876
					c4.09216,8.52872,5.20581,18.1601,6.42493,26.31197c-0.01318,0.002-0.02649,0.00366-0.04016,0.00533
					c0.19824,1.29057,0.38818,2.58281,0.56213,3.87936c0.03186,0.23807,0.03589,0.46417,0.05481,0.69693
					c51.9187,25.76845,73.6936,86.02998,84.07031,145.5388c48.16724,81.53503,50.85632,183.82327-44.04871,212.91962
					c-15.07556,4.62213-29.35693,6.48944-42.80627,6.28589l1.31042,20.56958c16.50305-1.94965,31.53613-3.13031,31.53613-3.13031
					s14.07886,30.49884,12.59265,75.67877c-43.14624,16.60657-221.03687-28.01855-221.03687-28.01855
					c8.24841-5.09027,23.54785-7.14587,33.49634-11.29187l-8.56702-131.79495c-11.96179,2.64822-26.46765-1.39386-36.19965-7.59109
					C1015.18658,428.55826,1009.72644,422.45166,1005.85736,415.43201z M1073.70532,1015.97644
					c-5.01025-7.21393,7.73511-14.88904,24.90552-22.56342c-23.87622,4.86084-47.34106,9.28339-50.59558,6.49408
					c-6.05554-5.18958,0.78784-11.80786,14.00513-18.70795c-19.54602,3.70471-34.64258,5.54382-37.46667,3.12366
					c-8.96869-7.68573,10.33984-18.50409,36.78503-28.73407c-12.27234,1.88287-21.02222,2.41449-23.10303,0.63116
					c-15.88867-13.6167,56.94299-37.0636,101.04553-49.65002c-16.99341-3.02173-58.88635-11.76697-55.68091-24.0871
					c114.71851-14.09479,152.35364,27.02521,157.75659,35.54993l-40.22241,70.67682
					C1077.9021,1020.995,1076.47205,1019.96039,1073.70532,1015.97644z M1474.99524,1211.89807
					c-19.35144,15.58191-47.54932,13.92542-70.80066,17.64673c-11.13416,1.78198-22.08191,4.81104-32.76917,8.36475
					c-10.3313,3.43542-20.29541,7.83606-30.94934,10.22266c-21.50391,4.81702-43.77393,7.31226-65.68018,9.7616
					c1.18457,12.92773,3.05322,25.34668,0.25061,38.29797c-1.67639,7.74817-10.68091,12.21057-17.9751,10.20618
					c-7.90686-2.17249-11.8739-10.26855-10.20618-17.97546c1.89429-8.75488,0.22876-18.16943-0.89417-27.16663
					c-14.08142,1.6239-28.14905,3.04028-42.44165,3.47192c-11.60535,0.35071-23.05786,0.73254-34.66516,0.16602
					c-10.46936-0.51123-21.05896-1.18994-31.34045,1.22583c-18.32312,4.30505-26.07092-23.88147-7.76941-28.18152
					c12.93335-3.0387,25.93555-2.9126,39.10986-2.26978c12.01697,0.5863,23.88831,0.15869,35.90356-0.20251
					c12.82019-0.38586,25.45862-1.61401,38.09253-3.05664c-0.55847-3.89758-1.20728-7.78967-2.01367-11.68127
					c-1.60706-7.75378,2.18042-15.7699,10.20605-17.97546c7.25708-1.99451,16.37317,2.47485,17.97546,10.20605
					c1.10437,5.32861,1.99182,10.68054,2.73633,16.0498c0.03577-0.00403,0.07129-0.0083,0.10681-0.01233
					c20.99927-2.35168,42.56665-4.59485,63.13428-9.57788c10.61816-2.57263,20.64563-7.1167,31.02905-10.46985
					c10.34192-3.34009,20.90857-6.12354,31.65918-7.77759c11.39783-1.75342,23.01733-2.09277,34.35571-4.17786
					c4.68982-0.86267,9.31421-2.09583,13.94067-3.24524c2.38623-0.59302,6.93066-1.38062,8.33984-2.51514
					c6.16699-4.96606,14.58582-6.07971,20.66516,0C1480.15393,1196.39075,1481.14697,1206.94458,1474.99524,1211.89807z"/>
			</g>
		</g>
		<g>
			<path class="st2" d="M1797.70312,751.52667h-274.83105c-1.32617,0-2.53809-0.74902-3.13086-1.93506
				c-0.59277-1.18555-0.46484-2.60449,0.33105-3.66504c6.49805-8.66309,8.91699-14.01855,9.04395-16.08105
				c-1.74121-0.14502-8.20703,0.87695-30.07227,14.38428c-1.51953,0.93799-3.49902,0.5835-4.59863-0.82324
				c-1.09766-1.40625-0.96289-3.41406,0.31543-4.66016c20.95605-20.43701,31.63965-34.24805,32.44922-37.39453
				c-0.17871-1.20215-0.59473-1.42041-0.75781-1.50586c-0.60352-0.31738-4.29297-1.5498-17.42383,5.49561
				c-1.5293,0.81982-3.42871,0.39746-4.46387-0.99561c-1.03516-1.39209-0.89453-3.33301,0.33105-4.56104
				c20.22754-20.26611,22.40527-25.51562,22.62793-26.53125c-0.17969-1.30859-0.625-1.51172-0.84375-1.61133
				c-1.59473-0.72607-9.0625-1.53857-38.1123,18.53125c-1.4707,1.01562-3.46777,0.76074-4.63672-0.58984
				c-1.16797-1.35156-1.13184-3.36572,0.08496-4.67334c11.02246-11.84863,12.40527-15.38818,12.5752-16.14502
				c-0.18066-1.31201-0.62988-1.51465-0.85059-1.61377c-1.67773-0.75879-9.58887-1.52637-40.74902,20.37402
				c-1.15137,0.80908-2.6748,0.84912-3.86523,0.10547c-1.19336-0.74414-1.8252-2.12988-1.60449-3.51855
				c24.99805-157.29053,5.87207-464.10205,5.67578-467.18311c-0.06055-0.95312,0.27148-1.89014,0.91895-2.59326
				c0.64648-0.70264,1.55371-1.11035,2.50879-1.12842c2.06836-0.03857,208.31641-3.87158,339.07812-3.87158
				c1.78711,0,3.28613,1.3457,3.47949,3.12207c25.90625,238.36279,24.51855,371.43701,18.79395,441.09912
				c-6.26465,76.21973-18.83887,95.63672-19.37109,96.42578C1799.9541,750.94855,1798.86719,751.52667,1797.70312,751.52667z
				 M1529.64746,744.52667h265.97559c2.8623-5.8667,12.49023-29.77637,17.57129-93.95996
				c5.46777-69.05908,6.64941-200.36572-18.63184-434.22998c-121.14746,0.05615-304.10938,3.29346-332.1582,3.80322
				c2.05371,34.70215,17.11426,306.50391-4.75195,457.05908c27.37891-18.39062,36.29492-18.53418,40.96387-16.4292
				c1.98242,0.89307,4.4502,2.89941,4.95215,7.38574c0.12402,1.11377,0.03906,2.48926-1.19238,4.87207
				c16.92871-9.74268,23.45605-9.46387,27.20605-7.75537c1.96777,0.89648,4.41895,2.90332,4.91895,7.36963
				c0.29004,2.58838-0.67773,6.59131-13.29395,20.30566c3.52344-0.68555,6.32031-0.44385,8.49902,0.70068
				c1.78809,0.93896,4.01953,2.94287,4.49121,7.15771c0.17773,1.59082,0.50879,4.55225-10.84961,17.90332
				c-2.11133,2.48193-4.47363,5.14355-7.02441,7.92041c10.04102-4.61621,14.05176-4.25342,16.59668-2.83887
				c1.19141,0.6626,3.19238,2.30566,3.20117,5.86572C1536.12988,733.0589,1533.95605,738.04669,1529.64746,744.52667z
				 M1527.54004,673.16632L1527.54004,673.16632L1527.54004,673.16632z"/>
		</g>
		<g>
			<path class="st2" d="M1560.21191,355.56964c-0.00879,0-0.01855,0-0.02734,0l-51.30176-0.40527
				c-1.80078-0.01416-3.2959-1.3916-3.45801-3.18457l-4.92773-54.42676c-0.08984-0.98389,0.24121-1.95947,0.91113-2.68604
				c0.66797-0.72656,1.59766-1.15479,2.60156-1.12939l51.30078,0.40527c1.80078,0.01416,3.2959,1.3916,3.45801,3.18457
				l4.92871,54.42676c0.08984,0.98389-0.24121,1.95947-0.91016,2.68604
				C1562.12402,355.16046,1561.18945,355.56964,1560.21191,355.56964z M1512.10938,348.18976l44.26855,0.34961l-4.29395-47.42188
				l-44.26758-0.34961L1512.10938,348.18976z"/>
		</g>
		<g>
			<path class="st2" d="M1753.57422,316.38654c-0.00977,0-0.01953,0-0.02832,0l-160.25781-1.2666
				c-1.93359-0.01562-3.48828-1.59473-3.47266-3.52783c0.01562-1.92334,1.5791-3.47217,3.49902-3.47217
				c0.00977,0,0.01953,0,0.02832,0l160.25781,1.2666c1.93359,0.01562,3.48828,1.59473,3.47266,3.52783
				C1757.05762,314.83771,1755.49414,316.38654,1753.57422,316.38654z"/>
		</g>
		<g>
			<path class="st2" d="M1652.92285,342.62531c-0.00977,0-0.01953,0-0.02832,0l-57.15625-0.45166
				c-1.93359-0.01562-3.48828-1.59473-3.47266-3.52783c0.01562-1.92334,1.5791-3.47217,3.49902-3.47217
				c0.00977,0,0.01953,0,0.02832,0l57.15625,0.45166c1.93359,0.01562,3.48828,1.59473,3.47266,3.52783
				C1656.40625,341.07648,1654.84277,342.62531,1652.92285,342.62531z"/>
		</g>
		<g>
			<path class="st2" d="M1566.6875,461.60529c-0.00879,0-0.01855,0-0.02734,0l-51.26465-0.40527
				c-1.9209-0.01514-3.4707-1.57568-3.47266-3.49707l-0.04785-54.42676c-0.00098-0.93359,0.37109-1.82861,1.03418-2.48633
				c0.66113-0.65771,1.57031-0.99316,2.49316-1.0166l51.26562,0.40576c1.9209,0.01514,3.4707,1.57617,3.47266,3.49707
				l0.04688,54.42627c0.00098,0.93359-0.37109,1.82861-1.03418,2.48633
				C1568.49805,461.24005,1567.61133,461.60529,1566.6875,461.60529z M1518.91992,454.22736l44.26465,0.3501l-0.04102-47.42578
				l-44.26562-0.35059L1518.91992,454.22736z"/>
		</g>
		<g>
			<path class="st2" d="M1763.56445,422.42218c-0.00977,0-0.01953,0-0.02832,0l-160.14453-1.26611
				c-1.93359-0.01562-3.48828-1.59473-3.47266-3.52783c0.01562-1.92334,1.5791-3.47217,3.49902-3.47217
				c0.00977,0,0.01953,0,0.02832,0l160.14453,1.26611c1.93359,0.01562,3.48828,1.59473,3.47266,3.52783
				C1767.04785,420.87335,1765.48438,422.42218,1763.56445,422.42218z"/>
		</g>
		<g>
			<path class="st2" d="M1660.55957,448.66144c-0.00977,0-0.01953,0-0.02832,0l-57.11621-0.45166
				c-1.93359-0.01562-3.48828-1.59473-3.47266-3.52783c0.01562-1.92334,1.5791-3.47217,3.49902-3.47217
				c0.00977,0,0.01953,0,0.02832,0l57.11621,0.45166c1.93359,0.01562,3.48828,1.59473,3.47266,3.52783
				C1664.04297,447.11261,1662.47949,448.66144,1660.55957,448.66144z"/>
		</g>
		<g>
			<path class="st2" d="M1566.6875,570.07404c-0.00879,0-0.01855,0-0.02734,0l-51.26465-0.40527
				c-1.9209-0.01514-3.4707-1.57568-3.47266-3.49707l-0.04785-54.42627c-0.00098-0.93359,0.37109-1.82861,1.03418-2.48633
				c0.66113-0.65771,1.57031-1.02002,2.49316-1.0166l51.26562,0.40527c1.9209,0.01514,3.4707,1.57617,3.47266,3.49707
				l0.04688,54.42627c0.00098,0.93359-0.37109,1.82861-1.03418,2.48633
				C1568.49805,569.7088,1567.61133,570.07404,1566.6875,570.07404z M1518.91992,562.69611l44.26465,0.3501l-0.04102-47.42578
				l-44.26562-0.3501L1518.91992,562.69611z"/>
		</g>
		<g>
			<path class="st2" d="M1763.56445,530.89093c-0.00977,0-0.01953,0-0.02832,0l-160.14453-1.26611
				c-1.93359-0.01562-3.48828-1.59473-3.47266-3.52783c0.01562-1.92334,1.5791-3.47217,3.49902-3.47217
				c0.00977,0,0.01953,0,0.02832,0l160.14453,1.26611c1.93359,0.01562,3.48828,1.59473,3.47266,3.52783
				C1767.04785,529.3421,1765.48438,530.89093,1763.56445,530.89093z"/>
		</g>
		<g>
			<path class="st2" d="M1660.55957,557.13019c-0.00977,0-0.01953,0-0.02832,0l-57.11621-0.45166
				c-1.93359-0.01562-3.48828-1.59473-3.47266-3.52783c0.01562-1.92334,1.5791-3.47217,3.49902-3.47217
				c0.00977,0,0.01953,0,0.02832,0l57.11621,0.45166c1.93359,0.01562,3.48828,1.59473,3.47266,3.52783
				C1664.04297,555.58136,1662.47949,557.13019,1660.55957,557.13019z"/>
		</g>
		<g>
			<path class="st3" d="M1660.00989,195.41092h-27.41223v-11.7702c0-4.71584-3.82324-8.53947-8.53979-8.53947h-2.64453
				c-4.71631,0-8.53979,3.82364-8.53979,8.53947v11.7702h-27.41223c-2.96436,0-5.36755,2.40321-5.36755,5.3678v22.66275
				c0,2.96378,2.4032,5.367,5.36755,5.367h74.54858c2.96448,0,5.36755-2.40323,5.36755-5.367v-22.66275
				C1665.37744,197.81413,1662.97437,195.41092,1660.00989,195.41092z"/>
		</g>
		<g>
			<path class="st2" d="M1469.36279,1146.48914l-349.63879,36.45496c-36.63232,75.01379-96.90717,276.93372-104.979,408.11108
				c190.97375-49.151,370.24426-156.31958,518.17761-292.74829C1497.28149,1213.74805,1469.36279,1146.48914,1469.36279,1146.48914z
				 M1465.20789,1199.73792c-76.5863,30.20032-150.72205,44.42334-205.84094,51.09705v7.32336
				c0,2.62903-2.13159,4.76001-4.75989,4.76001s-4.75989-2.13098-4.75989-4.76001v-6.21912
				c-5.61523,0.61829-11.01062,1.15845-16.15369,1.62732c-30.40283,2.771-55.74963,3.47095-73.59399,3.47095
				c-18.02625,0-28.39478-0.71387-28.5979-0.72852c-2.6217-0.18787-4.59521-2.46558-4.40796-5.08728
				c0.18726-2.62231,2.47815-4.58728,5.08789-4.40857c0.8606,0.06201,47.93176,3.14685,117.66565-4.573v-24.36035
				c0-2.62891,2.13159-4.75989,4.75989-4.75989s4.75989,2.13098,4.75989,4.75989v23.25598
				c57.57617-6.99866,129.07605-21.36047,202.34802-50.25354c2.45166-0.96692,5.21008,0.23706,6.17432,2.6814
				C1468.85352,1196.00928,1467.65283,1198.77368,1465.20789,1199.73792z"/>
		</g>
		<g>
			<path class="st3" d="M1494.19165,678.64539c-2.08984,2.5639-4.65698,5.47046-7.61401,8.64893
				c3.10242-2.14319,6.13977-4.17188,9.08215-6.05847C1495.17139,680.37061,1494.68164,679.50769,1494.19165,678.64539z"/>
		</g>
		<g>
			<path class="st3" d="M1516.94434,720.72693c-5.71057,6.4054-12.65125,13.61169-19.7406,20.52509
				c7.99915-4.94116,16.84631-10.03278,23.69727-12.79224C1519.58948,725.87695,1518.27112,723.29877,1516.94434,720.72693z"/>
		</g>
		<g>
			<path class="st3" d="M1393.0907,683.39838c4.37537-6.08704,7.80322-12.86005,14.56555-17.2265
				c10.80383-6.9765,26.20276-2.19165,27.28223,11.34796c12.52722-11.21045,27.0802-22.01654,42.93311-26.51917
				c-26.23389-42.69641-54.12573-79.58337-82.0835-103.22754l0.10059,8.49786
				C1395.88867,556.271,1392.94666,610.05005,1393.0907,683.39838z"/>
		</g>
		<g>
			<path class="st3" d="M1624.46692,984.37531c-9.04565-35.44135-46.71924-141.21484-97.02661-242.86963
				c-17.92676,27.85223-79.05945,86.41217-128.94629,94.5929c9.49731,125.48785,34.16614,246.81146,93.80078,251.71869
				C1617.18298,1098.09448,1639.29907,1042.48523,1624.46692,984.37531z"/>
		</g>
		<g>
			<path class="st3" d="M1045.35168,984.03564c1.03223,2.16644,2.0592,4.31598,3.08191,6.45221
				c2.73889-2.96063,7.46582-6.09332,13.58679-9.2887C1055.95728,982.34857,1050.32483,983.31677,1045.35168,984.03564z"/>
		</g>
		<g>
			<path class="st3" d="M1501.15015,866.10901c-0.28943-16.16064-4.44971-46.41675-11.74304-82.29205
				c-37.06921,33.59528-89.88245,66.26654-124.8374,47.98358c-15.91492-8.32422-21.33923-19.7887-20.58887-32.0069
				c-2.54663-18.83276,9.34253-42.3252,16.29382-57.12854c2.45764-5.23438,5.19128-10.25256,8.22266-15.05664
				c0.27417-0.68164,0.55847-1.36066,0.82434-2.04425c8.5387-21.95087,22.72644-44.93958,42.36316-58.49951
				c6.52551-4.50623,16.2356-1.18164,19.99316,5.24237c0.02551,0.04382,0.04382,0.08899,0.06873,0.13281
				c7.40881-3.70807,14.31189-8.88501,22.31836-11.36224c0.80286-0.24835,1.57715-0.40741,2.33752-0.52692
				c-16.84241-49.08923-37.55737-92.64093-60.6145-112.77759c-22.82214-19.93176-86.81287-20.58191-160.4032-10.95087
				c4.32861,1.63788,7.85229,5.40009,9.33716,9.92261c2.61035,7.94934,3.0918,16.33527,4.97705,24.45862
				c1.92175,8.28137,4.09985,16.48767,5.67126,24.84772c2.28406,12.15112-8.93372,21.30902-19.22852,17.44293
				c-1.90686,0.34766-3.89502,0.53955-5.81812,0.65674c-4.07751,0.24872-8.15417-0.11853-12.2052-0.56012
				c-8.24878-0.89911-16.3446-3.25281-24.63953-3.36475c-8.68018-0.11688-17.45056,0.86127-26.06836-0.48938
				c-7.52661-1.17938-15.1001-2.41882-22.63672-3.67816c-7.76074-1.29694-14.86743-2.87372-22.75134-3.2937
				c-8.69678-0.4632-15.82593-2.77209-23.94238-5.495c-16.27686-5.46118-33.29834-8.0752-49.80835-12.64185
				c-3.33521-0.92236-5.78784-2.633-7.46826-4.77252c-50.09985,15.72205-89.8197,32.81598-105.43213,47.37329
				c-33.38843,31.13232,39.41467,206.80371,101.64978,339.20496c6.61426-3.5802,15.02075-7.24878,24.3175-10.84491
				c-12.27234,1.88287-21.02222,2.41449-23.10303,0.63116c-15.88867-13.6167,56.94299-37.0636,101.04553-49.65002
				c-16.99341-3.02173-58.88635-11.76697-55.68091-24.0871c114.71851-14.09479,152.35364,27.02521,157.75659,35.54993
				l-40.22241,70.67682c-123.23242,32.28546-124.66248,31.25085-127.4292,27.26691
				c-5.01025-7.21393,7.73511-14.88904,24.90552-22.56342c-18.29321,3.72394-36.33386,7.18701-45.23938,7.35034
				c31.9165,66.16364,57.77332,115.00043,59.46594,117.38275c0,0-40.07507,64.29529-5.73206,85.87463
				c34.34302,21.57959,326.95459-9.61011,361.1731-37.36938C1502.49719,1138.89172,1502.11902,920.17365,1501.15015,866.10901z"/>
		</g>
		<g>
			<path class="st3" d="M1275.26733,528.80688c-12.68567-0.10992-31.24121,2.28497-52.93237,6.15808
				c8.66345,1.74347,17.49133,2.70862,22.40967,11.35858c2.21228,3.8913,2.62732,8.28601,3.58325,12.56744
				c1.22644,5.49371,2.51599,10.90533,3.17017,16.50995c0.51465,4.4093,0.07898,8.80096,0.45911,13.19202
				c0.35071,4.05133,1.61499,8.17712,2.0835,12.26862c0.93494,8.16785-7.41211,14.26318-14.61279,14.61279
				c-8.69934,0.4223-17.85925-0.62952-26.5918-0.98383c-9.00757-0.36523-17.8855-0.86224-26.68481-2.95465
				c-16.75708-3.98499-33.85828-1.96527-50.72522-5.61127c-8.15808-1.76367-15.53345-2.21527-23.83472-2.55756
				c-4.96045-0.20453-10.15601-0.68433-14.93909-2.07214c-3.76746-1.09338-7.17578-3.15625-10.87976-4.39838
				c-3.38-1.13318-7.00244-1.11493-10.41699-2.08344c-3.7804-1.07245-7.34705-2.89526-11.08228-4.11847
				c-7.65857-2.50842-15.29773-3.21533-22.73279-6.61389c-2.79736-1.27863-4.75598-3.63306-5.90381-6.39648
				c-4.04041,0.96124-7.91809,1.87427-11.58826,2.72327c-32.11414,7.42841-127.08521-1.42603-113.00867,106.5614
				c0,0,356.76245-35.06976,361.85498-35.99579c5.09265-0.92603,16.66699-68.48114,16.66699-68.48114
				S1328.75623,529.27008,1275.26733,528.80688z"/>
		</g>
		<g>
			<path class="st3" d="M1256.84839,529.86865c46.52576-6.29803,72.41296-29.16095,111.99683-11.65216
				c39.58398,17.50879,90.85742,104.59424,90.85742,104.59424l-140.85815-33.06537L1256.84839,529.86865z"/>
		</g>
		<path class="st3" d="M1511.74634,933.91626c-41.5061,0.49164-268.17615,10.67413-268.17615,10.67413l7.30481,91.46771
			c8.16809-0.09668,186.50513,79.45557,322.07373,46.71838C1588.03125,964.66846,1553.25232,933.42468,1511.74634,933.91626z"/>
		<g>
			<path class="st3" d="M1410.09729,834.74725c-8.23743,2.01971-16.45044,1.90881-24.80981,0.91541
				c-8.30725-0.98712-17.18628-1.60303-24.85547-5.17426c-13.33374-6.20892-16.51123-19.64331-16.729-33.06775
				c-7.32019,2.9245-13.9115,8.85779-19.01404,18.74384c-14.22864,27.56702-79.07373,125.8089-123.30676,192.06714
				c-2.27734-5.37054-4.69385-11.30878-7.21631-17.6983c-116.30359,30.4165-117.74695,29.35034-120.46057,25.44312
				c-5.01025-7.21393,7.73511-14.88904,24.90552-22.56342c-23.87622,4.86084-47.34106,9.28339-50.59558,6.49408
				c-6.05554-5.18958,0.78784-11.80786,14.00513-18.70795c-19.54602,3.70471-34.64258,5.54382-37.46667,3.12366
				c-8.96869-7.68573,10.33984-18.50409,36.78503-28.73407c-12.27234,1.88287-21.02222,2.41449-23.10303,0.63116
				c-15.88867-13.6167,56.94299-37.0636,101.04553-49.65002c-16.99341-3.02173-58.88635-11.76697-55.68091-24.0871
				c28.12708-3.45605,51.61023-3.58716,71.13098-1.69861c-17.83301-52.7674-34.91736-106.63843-45.01929-140.68927
				c-37.052-124.8938-166.91486-198.61432-196.08191-79.45123c-21.54742,88.03278,95.89673,392.06494,182.875,473.55823
				c160.45862,150.33984,313.43689-248.36633,321.63086-273.61914c2.45837-7.57678,0.02393-17.23572-5.48267-26.79138
				C1411.8501,834.19574,1411.00073,834.52582,1410.09729,834.74725z"/>
		</g>
		<g>
			<path class="st2" d="M1343.9248,806.4632c-1.69922,0-3.18945-1.23828-3.45508-2.96924
				c-2.55762-16.65137,5.52344-45.50977,21.61719-77.19629c12.31152-24.23975,31.83789-53.96582,49.7168-64.70068
				c0.89941-0.53955,1.99023-0.64844,2.97754-0.2959c2.41211,0.86035,4.26367,2.66553,5.35449,5.22119
				c4.7373,11.0957-5.39258,38.26025-14.72461,59.09424c-0.21777,0.48584-0.54297,0.91504-0.95117,1.25635
				c-6.02148,5.02588-12.04395,10.15137-17.90332,15.2334c-1.46094,1.26562-3.67188,1.10889-4.93652-0.35059
				c-1.2666-1.45996-1.11035-3.6709,0.35059-4.9375c5.68945-4.93555,11.5332-9.91162,17.38086-14.79932
				c11.62109-26.09082,17.11426-46.26465,14.34668-52.74805c-0.07129-0.16602-0.14355-0.31152-0.2168-0.43945
				c-30.20801,20.52148-70.93066,102.10498-66.09375,133.6001c0.29395,1.91064-1.0166,3.69727-2.92773,3.99072
				C1344.28027,806.45001,1344.10059,806.4632,1343.9248,806.4632z"/>
		</g>
		<g>
			<path class="st2" d="M1532.40405,591.6615l-107.6969,4.41132c-4.76392,0.19525-8.62476,3.93115-8.97595,8.6861
				l-8.51978,115.28003c35.62097-29.41675,90.65869-71.3385,92.87866-51.49475c0.30481,2.72363-5.05518,9.65997-13.51245,18.75012
				c23.3291-16.11682,43.13196-26.00153,44.44519-14.26343c0.41333,3.69678-9.59583,15.1463-23.64978,29.22681
				c13.13782-7.04956,22.45874-8.98792,23.34534-1.0625c0.47681,4.25922-16.07043,23.04486-33.51465,40.05682
				c16.00098-9.88403,35.39453-20.36969,35.41711-11.58667c0.03284,12.90082-47.80298,66.88611-97.20728,93.04865l82.31824-3.3717
				c4.76392-0.19519,8.62439-3.93115,8.97595-8.6861l15.44055-208.92535
				C1542.56165,596.13721,1538.00867,591.43176,1532.40405,591.6615z"/>
		</g>
		<g>
			<path class="st2" d="M1387.21777,840.51788c-8.96582,0-17.09863-1.86475-24.27051-5.61572
				c-21.94141-11.47656-27.74512-29.88232-19.40723-61.54443c0.49316-1.86914,2.40527-2.98828,4.27637-2.49365
				c1.86914,0.49219,2.98535,2.40674,2.49316,4.27588c-8.69238,33.01025,0.0625,45.28467,15.88184,53.55908
				c23.66699,12.37939,55.35059-1.24902,77.76367-14.85889c47.15625-28.63525,84.72852-74.46973,85.16211-83.99463
				c-1.72168-0.14502-8.20801,0.87695-30.07324,14.38428c-1.51953,0.93799-3.49902,0.5835-4.59863-0.82324
				c-1.09766-1.40625-0.96289-3.41406,0.31543-4.66016c20.95605-20.43701,31.63965-34.24805,32.44922-37.39453
				c-0.17871-1.20215-0.59473-1.4209-0.75781-1.50586c-0.60645-0.31934-4.29297-1.55029-17.42383,5.49561
				c-1.5293,0.81982-3.42871,0.39746-4.46387-0.99561c-1.03516-1.39209-0.89453-3.33301,0.33105-4.56104
				c20.22754-20.26611,22.40527-25.51562,22.62793-26.53125c-0.17969-1.30859-0.625-1.51172-0.84375-1.61133
				c-1.59473-0.72607-9.0625-1.53857-38.1123,18.53125c-1.4707,1.01562-3.46875,0.76074-4.63672-0.58984
				c-1.16797-1.35107-1.13184-3.36572,0.08496-4.67334c11.02344-11.84912,12.40527-15.38867,12.5752-16.14502
				c-0.18652-1.35303-0.66504-1.54248-0.92676-1.646c-6.62207-2.62646-36.88672,13.44922-100.31152,67.43066
				c-1.47168,1.25293-3.68164,1.07471-4.93359-0.39697c-1.25293-1.47217-1.0752-3.68115,0.39648-4.93408
				c15.00098-12.76709,37.1709-31.04541,57.60449-45.61914c34.51758-24.62012,44.96484-24.91162,49.82227-22.98877
				c1.75098,0.69385,4.77246,2.59619,5.32617,7.54395c0.12402,1.11377,0.03906,2.48975-1.19238,4.87256
				c16.92871-9.74268,23.45605-9.46387,27.20605-7.75537c1.96777,0.89697,4.41895,2.90332,4.91895,7.36963
				c0.29004,2.58838-0.67773,6.59131-13.29395,20.30518c3.52441-0.68604,6.31934-0.44238,8.49902,0.70068
				c1.78809,0.93896,4.01953,2.94336,4.49121,7.1582c0.17773,1.59082,0.50879,4.55225-10.84961,17.90332
				c-2.11133,2.48193-4.47363,5.14307-7.02441,7.92041c10.04102-4.61621,14.05176-4.25342,16.59668-2.83887
				c1.19141,0.6626,3.19238,2.30566,3.20117,5.86572c0.03809,15.01514-45.74219,64.18311-88.53223,90.16699
				C1424.95703,833.56573,1404.53223,840.51788,1387.21777,840.51788z M1527.23926,701.22052c0,0,0,0,0,0.00049
				C1527.23926,701.22052,1527.23926,701.22101,1527.23926,701.22052z M1527.54004,673.16632L1527.54004,673.16632
				L1527.54004,673.16632z"/>
		</g>
		<g>
			<path class="st2" d="M1225,618.66437c-65.1123,0.00244-186.61816-30.25684-192.73193-31.79053
				c-1.36475-0.34277-2.39209-1.46924-2.60742-2.85986c-0.21484-1.39062,0.42334-2.7749,1.62109-3.51367
				c5.24268-3.23535,12.78613-5.2627,20.08154-7.22363c3.98682-1.07129,8.08447-2.17285,11.59326-3.4292l-8.3667-128.70898
				c-0.12549-1.92871,1.33691-3.59424,3.26562-3.71973c1.93652-0.12402,3.59424,1.3374,3.71973,3.26562l8.53369,131.27588
				c0.09717,1.49268-0.76562,2.88232-2.14648,3.45752c-4.36426,1.81885-9.66064,3.24268-14.78223,4.61914
				c-3.0166,0.81104-6.07812,1.63379-8.93359,2.53369c37.64893,8.93652,167.75293,38.2583,206.47656,26.4082
				c0.74316-35.79443-8.40674-61.91113-11.40527-69.46289c-4.95654,0.42041-16.56445,1.45459-28.87939,2.90918
				c-0.95898,0.11523-1.91309-0.17139-2.65137-0.78711c-0.73828-0.61523-1.19092-1.50684-1.25195-2.46582l-1.38525-21.72949
				c-0.12256-1.9292,1.34131-3.59277,3.27051-3.71533c1.93164-0.12109,3.59326,1.34131,3.71533,3.27002l1.15088,18.05225
				c14.90479-1.68457,27.86328-2.70947,28.00342-2.72021c1.45947-0.11816,2.83789,0.69238,3.45166,2.02246
				c0.58887,1.27588,14.40918,31.7749,12.91309,77.26123c-0.0459,1.40479-0.92871,2.646-2.24072,3.15137
				C1248.27979,617.51007,1237.71045,618.66388,1225,618.66437z"/>
		</g>
		<g>
			<path class="st2" d="M1212.20264,520.63995c-33.57324,0-66.25977-12.61377-96.23389-37.43213
				c-1.48926-1.23291-1.69678-3.43896-0.46387-4.92773c1.23242-1.48975,3.43848-1.69629,4.92773-0.46387
				c40.94189,33.8999,85.13428,43.90527,131.34766,29.73486c33.28027-10.20312,55.76904-29.8584,66.84229-58.41992
				c15.74561-40.61328,6.48193-96.45361-24.78076-149.37305c-0.21484-0.36377-0.3623-0.76318-0.43457-1.1792
				c-18.35645-105.27002-64.72559-156.15479-141.77295-155.62354c-1.94238,0.01465-3.51123-1.54199-3.5249-3.4751
				c-0.01367-1.93262,1.54199-3.51074,3.4751-3.5249c45.41309-0.3042,81.38867,16.76514,106.90674,50.79443
				c19.66064,26.21875,33.30371,62.20215,41.70166,109.99854c32.08301,54.58936,41.41553,112.46045,24.95654,154.91309
				c-11.7207,30.23096-36.38184,51.87158-71.31738,62.58203C1239.89404,518.51691,1225.97119,520.63995,1212.20264,520.63995z"/>
		</g>
		<g>
			<path class="st2" d="M1049.60156,444.87921c-19.08984,0.00049-35.64355-11.396-45.04834-25.43555
				c-12.95508-19.34082-15.45752-47.86572,8.15625-67.99219c9.03809-7.70312,19.31836-10.5918,29.73047-8.35449
				c14.91943,3.20654,29.84424,17.16455,38.94971,36.42725c0.82617,1.74756,0.0791,3.83398-1.66846,4.65967
				c-1.74805,0.82666-3.8335,0.07959-4.65967-1.66846c-8.19434-17.33447-21.25781-29.81641-34.09229-32.57471
				c-8.31689-1.78809-16.29834,0.51318-23.71875,6.83789c-20.33643,17.3335-18.10986,42.00635-6.88135,58.76904
				c11.479,17.13818,35.07666,29.80859,59.76025,17.12744c1.71973-0.88428,3.8291-0.20557,4.7124,1.51416
				c0.8833,1.71924,0.20557,3.8291-1.51416,4.7124C1065.21143,443.07111,1057.20508,444.87921,1049.60156,444.87921z"/>
		</g>
		<g>
			<path class="st2" d="M1260.31299,370.52374c-1.80615,0-3.33789-1.38867-3.48486-3.22021
				c-0.15479-1.92676,1.28174-3.61377,3.20898-3.76855c17.62158-1.41455,26.43311-8.00391,26.18994-19.58594
				c-0.0708-3.3584-1.50439-6.43066-4.03662-8.65039c-2.54541-2.23193-5.79932-3.25781-9.16455-2.88379l-21.87109,2.41992
				c-1.5459,0.16992-3.01709-0.69775-3.61523-2.13232l-18.8501-45.2168c-0.74365-1.78418,0.09961-3.8335,1.88379-4.57715
				c1.78418-0.74463,3.83398,0.09961,4.57715,1.88379l17.84131,42.79639l19.26465-2.13184
				c5.25977-0.58154,10.56592,1.08594,14.54883,4.57812c3.96924,3.47949,6.30908,8.49756,6.41992,13.7666
				c0.18896,8.98242-3.79883,24.39697-32.62842,26.71094C1260.50146,370.52032,1260.40674,370.52374,1260.31299,370.52374z"/>
		</g>
		<g>
			<path class="st2" d="M1246.77515,393.97305c20.62305-2.45428,29.9104,9.62759,30.41418,10.30768
				c1.15063,1.55362,0.82385,3.7453-0.72925,4.89587c-1.54932,1.14618-3.72888,0.82632-4.88196-0.71078
				c-0.58057-0.75504-13.57776-16.94241-45.54175-0.298c-1.7157,0.89261-3.82812,0.22693-4.7207-1.48773
				c-0.89294-1.7146-0.22693-3.82812,1.48779-4.72058C1232.06641,397.13574,1240.02783,394.77603,1246.77515,393.97305z"/>
		</g>
		<g>
			<path class="st2" d="M1137.71973,288.06134c-0.47607,0-0.95996-0.09814-1.42236-0.30469
				c-1.75977-0.78711-2.55469-2.84229-1.7749-4.60547c0.51611-1.16553,13.10596-28.56689,54.01465-29.83057
				c1.91016-0.05469,3.54688,1.45801,3.60645,3.39062c0.05957,1.93213-1.4585,3.54639-3.39062,3.60645
				c-36.32812,1.12158-47.38184,24.67627-47.83447,25.67871C1140.33301,287.29132,1139.05566,288.06134,1137.71973,288.06134z"/>
		</g>
		<g>
			<path class="st2" d="M1237.09863,242.03204c-1.21094,0-2.38818-0.62891-3.03613-1.75293
				c-0.96484-1.6748-0.38965-3.81494,1.28516-4.78027c28.24121-16.27441,47.52246-4.01855,48.3291-3.48828
				c1.61621,1.06055,2.06641,3.23047,1.00537,4.84619c-1.05713,1.61084-3.21777,2.06348-4.83203,1.01514
				c-0.70605-0.45068-16.70654-10.3125-41.00732,3.69238C1238.29248,241.88116,1237.69141,242.03204,1237.09863,242.03204z"/>
		</g>
		<g>
			<path class="st2" d="M1198.2594,362.39517c12.53601-2.38754,13.43665-42.83499-3.59204-37.80475
				S1185.21448,364.87964,1198.2594,362.39517z"/>
		</g>
		<g>
			<path class="st2" d="M1276.6554,328.16171c0.27429,0.10025,0.54749,0.20984,0.81982,0.32935
				c1.96423,0.77695,3.90295,1.64951,5.69666,2.7598c1.74695,1.08109,3.6521,2.54797,4.46423,4.49496
				c10.79163-7.44864,11.9054-41.55493-4.2522-36.78174c-10.56934,3.12238-11.87427,18.69101-8.36938,28.95258
				C1275.56067,327.7168,1276.22278,327.76593,1276.6554,328.16171z"/>
		</g>
		<g>
			<path class="st2" d="M1118.35217,485.34067c0,0,19.87891,56.08585,91.3877,49.09048
				c-0.49609-7.78644-0.49036-15.63391-0.49036-15.63391S1146.27185,506.93982,1118.35217,485.34067z"/>
		</g>
		<g>
			<path class="st2" d="M1244.36768,429.04474c-8.32666,0-15.21289-4.07178-15.57178-4.2876
				c-1.65625-0.99658-2.19092-3.14697-1.19434-4.80371c0.99463-1.65381,3.14062-2.18848,4.79541-1.19922
				c0.10938,0.06445,8.55273,4.99023,16.48242,2.67236c1.85596-0.54004,3.79932,0.52295,4.34131,2.37842
				c0.5415,1.85547-0.52295,3.79932-2.37842,4.34131C1248.64697,428.78693,1246.46143,429.04474,1244.36768,429.04474z"/>
		</g>
		<g>
			<path class="st2" d="M1040.25635,414.88312c-1.6748,0-3.15527-1.20605-3.4458-2.91309
				c-0.83594-4.90869,3.55127-10.22559,10.20459-12.36719c3.33447-1.07422,6.59131-1.1416,9.5166-0.30908
				c-7.1377-19.90576-17.49219-20.34131-25.08301-18.62354c-1.8833,0.42725-3.75977-0.75635-4.18555-2.64209
				c-0.42676-1.88525,0.75635-3.75928,2.6416-4.18604c18.07422-4.0874,30.35938,7.56006,36.5166,34.61768
				c0.39453,1.7334-0.57275,3.48682-2.24854,4.07764c-1.67773,0.59033-3.52881-0.16748-4.30908-1.76514
				c-3.02783-6.20166-8.49561-5.21826-10.70361-4.50635c-3.83057,1.23291-5.5791,3.76562-5.44922,4.5293
				c0.32471,1.90576-0.95703,3.71338-2.86279,4.0376C1040.64941,414.867,1040.45166,414.88312,1040.25635,414.88312z"/>
		</g>
		<g>
			<path class="st2" d="M1301.01611,166.06427c-1.82764,0-3.36621-1.41846-3.48877-3.26855
				c-0.12793-1.92773,1.33057-3.59473,3.2583-3.72363l0,0c5.05127-0.34131,19.44873-2.56201,25.33398-8.65869
				c1.34229-1.39062,3.55908-1.4292,4.94873-0.0874c1.39062,1.34229,1.43018,3.55811,0.0874,4.94873
				c-8.97021,9.29346-29.0542,10.72559-29.90479,10.78174C1301.17236,166.06183,1301.09375,166.06427,1301.01611,166.06427z"/>
		</g>
		<g>
			<path class="st2" d="M1321.74463,170.63409c-8.17969,0-15.87793-2.62354-16.36279-2.7915
				c-1.82617-0.63428-2.79248-2.62842-2.15869-4.45459c0.63379-1.82568,2.62695-2.79248,4.45459-2.15869
				c4.17822,1.44141,16.39258,4.3457,22.70508,0.53809c1.65527-0.99951,3.80566-0.46533,4.80469,1.19043
				c0.99805,1.65527,0.46484,3.80615-1.19043,4.8042C1330.42188,169.91827,1326.01758,170.63409,1321.74463,170.63409z"/>
		</g>
		<g>
			<path class="st2" d="M1021.72949,135.16095c-0.18799,0-0.37793-0.01514-0.56934-0.04639
				c-1.90625-0.31201-3.19922-2.1084-2.89014-4.01465l0,0c0.03809-0.23389,3.59961-23.49658-10.45898-32.50244
				c-1.62793-1.04297-2.10205-3.20752-1.05957-4.83496c1.04346-1.62744,3.20752-2.10156,4.83496-1.05957
				c17.94873,11.49805,13.7793,38.38379,13.59277,39.52246C1024.89844,133.94171,1023.41357,135.16095,1021.72949,135.16095z"/>
		</g>
		<g>
			<path class="st2" d="M943.74414,341.5799c-1.76123,0-3.27686-1.32568-3.47461-3.1167
				c-0.21191-1.92139,1.17432-3.65088,3.09521-3.86279c12.91064-1.42334,16.83252-12.01123,18.9668-22.18115
				c0.43506-2.07324,0.65332-3.11426,1.29492-4.02783c1.11133-1.58203,3.29443-1.96338,4.87598-0.85254
				c1.4541,1.02148,1.89404,2.94873,1.09229,4.48242c-0.1001,0.34766-0.27197,1.16553-0.4126,1.83545
				c-1.46484,6.98242-5.35693,25.53027-25.0498,27.70166C944.00195,341.57257,943.87256,341.5799,943.74414,341.5799z
				 M969.35742,312.41095c-0.00098,0.00146-0.00195,0.00244-0.00244,0.00391
				C969.35596,312.41339,969.35645,312.41241,969.35742,312.41095z"/>
		</g>
		<g>
			<path class="st2" d="M1170.05664,334.01544c-0.42529,0-0.85693-0.07812-1.27686-0.24268
				c-1.79932-0.70557-2.68604-2.73633-1.98047-4.53613c0.35938-0.9165,9.15137-22.48486,39.35791-25.44434
				c1.92139-0.18213,3.63623,1.21826,3.82471,3.14209s-1.21826,3.63623-3.14209,3.82471
				c-25.98486,2.54541-33.45166,20.84863-33.52393,21.0332C1172.7749,333.17218,1171.45459,334.01544,1170.05664,334.01544z"/>
		</g>
		<g>
			<path class="st2" d="M1261.40479,295.59161c-0.97998,0-1.95459-0.40918-2.64697-1.2085
				c-1.26562-1.46094-1.10742-3.67139,0.354-4.93701c0.8623-0.74805,21.31494-18.18799,36.70361-7.25098
				c1.5752,1.12012,1.94482,3.30518,0.8252,4.88086c-1.11963,1.5752-3.30518,1.94482-4.88086,0.8252
				c-10.95459-7.78662-27.89453,6.68896-28.06494,6.83594C1263.0332,295.31036,1262.2168,295.59161,1261.40479,295.59161z"/>
		</g>
		<g>
			<path class="st2" d="M1306.08289,162.43597c59.16492-28.28088-19.75012-173.75893-137.9198-64.50812
				c7.34277-51.69562-102.54688-38.30904-145.69916,26.09982c-34.35132-28.29915-119.30621-29.85336-125.28101,40.40543
				c-57.72687-18.23015-117.81042,92.02802-11.78058,102.20325c-37.5105,47.86072,19.78339,76.62039,74.26532,58.28232
				c-5.60822,52.91782,22.0611,70.16119,37.25757,75.58151c-6.78094-20.8432,7.70728-43.71973,27.71674-52.30588
				c1.14319-0.49042,2.31262-0.8699,3.48755-1.15347c2.15491-1.24973,4.63049-2.01205,7.24414-2.11499
				c10.93762-0.43097,23.88696,5.29413,31.99988,14.19275c19.95679-10.54282,36.10339-37.01614,19.54639-57.56085
				c36.16577,8.8996,112.23438-38.11514,65.1366-84.59497c35.35437-4.41891,49.26489-39.0013,41.98718-70.27473
				c55.84399,17.28688,82.40894,69.40251,95.99976,125.68074C1348.60266,260.54767,1357.55042,186.70367,1306.08289,162.43597z
				 M1001.41284,145.59369c-13.93042,1.97356-24.21124,7.87164-29.73346,17.05711
				c-6.52765,10.85721-6.51434,26.16025,0.03851,44.25526c0.4303,1.18799,0.37054,2.49883-0.16602,3.64265
				c-0.5379,1.14415-1.50739,2.02766-2.69604,2.45598c-16.97711,6.1169-28.32703,20.68449-30.36169,38.96777
				c-2.17413,19.54962,6.90344,38.86218,23.12622,49.20111c2.21655,1.41312,2.86865,4.3555,1.45557,6.57245
				c-0.9071,1.42371-2.44635,2.2023-4.01752,2.2023c-0.87518,0-1.76105-0.24103-2.55389-0.74637
				c-19.26147-12.2753-30.04431-35.15216-27.47174-58.28201c2.26837-20.38466,14.20398-36.93777,32.26215-45.11356
				c-6.01624-19.05391-5.26721-35.59937,2.22461-48.06093c7.05084-11.72646,19.69171-19.18805,36.55725-21.5773
				c2.60706-0.37154,5.01227,1.44298,5.38147,4.04506C1005.82611,142.81596,1004.01593,145.22514,1001.41284,145.59369z
				 M1071.29614,298.1817c-0.02393,0-0.04785,0-0.073-0.00064c-13.53467-0.20322-23.83948-13.73123-24.27246-14.30698
				c-1.57776-2.10269-1.15137-5.08627,0.95093-6.66406c2.10107-1.57611,5.07739-1.15247,6.65784,0.94162
				c2.18604,2.88629,9.46936,10.40036,16.80713,10.51093c2.6283,0.03949,4.72668,2.2023,4.68811,4.83063
				C1076.01489,296.0976,1073.89124,298.1817,1071.29614,298.1817z M1123.5144,221.24889
				c-1.39062,0.04349-2.76648,0.0654-4.11853,0.0654c-28.10913,0-47.7146-9.38235-55.44153-26.63934l-0.14465-0.3204
				c-1.11035-2.38295-0.07837-5.21446,2.3042-6.32475c2.38123-1.11128,5.21411-0.07935,6.32568,2.30392l0.20459,0.45122
				c6.41602,14.33054,24.37329,21.76822,50.57275,20.94879c2.58838-0.08102,4.82361,1.98085,4.90588,4.60851
				C1128.2052,218.96953,1126.1427,221.16653,1123.5144,221.24889z M1191.09277,135.95667
				c-0.41309,0.11057-0.82751,0.16335-1.23389,0.16335c-2.10242,0-4.02539-1.40314-4.59521-3.53041
				c-3.12366-11.66869-9.48792-22.04347-9.55164-22.14706c-1.38257-2.23519-0.69202-5.1683,1.54187-6.55118
				c2.23523-1.38255,5.16626-0.69559,6.55017,1.53827c0.29089,0.46882,7.1571,11.63116,10.6554,24.69833
				C1195.1394,132.6673,1193.63208,135.27701,1191.09277,135.95667z"/>
		</g>
		<g>
			<path class="st2" d="M1103.45703,587.83185c-1.85596,0-3.40332-1.4585-3.49316-3.33252
				c-0.09229-1.93066,1.39795-3.5708,3.32861-3.66357l15.03418-0.7207c1.93311-0.08691,3.5708,1.39746,3.66357,3.32861
				c0.09229,1.93066-1.39795,3.5708-3.32861,3.66357l-15.03418,0.7207
				C1103.57031,587.83038,1103.51367,587.83185,1103.45703,587.83185z"/>
		</g>
		<g>
			<path class="st2" d="M1213.81787,563.86652c-1.4624,0-2.82666-0.92383-3.31738-2.38721
				c-0.61523-1.83252,0.37158-3.81689,2.2041-4.43164c1.21973-0.40967,7.52588-3.68018,12.91846-6.60596
				c1.69873-0.92285,3.82373-0.29248,4.74512,1.40723c0.92188,1.69873,0.29199,3.82324-1.40723,4.74512
				c-2.69824,1.46436-11.68555,6.30273-14.02881,7.08936C1214.56299,563.80743,1214.18701,563.86652,1213.81787,563.86652z"/>
		</g>
		<g>
			<path class="st2" d="M1078.34424,1021.4588c-4.18994,0-5.92578-1.19922-7.51367-3.48633
				c-1.64795-2.37207-2.12793-5.03027-1.38818-7.68555c0.84375-3.0293,3.18164-5.96191,7.43115-9.09961
				c-22.63379,4.05566-28.47852,3.65527-31.13623,1.37695c-3.22021-2.75977-3.62305-5.73145-3.39404-7.73828
				c0.2793-2.44434,1.65088-4.89258,4.19873-7.42188c-18.43506,2.72266-22.28809,1.27148-24.26562-0.42285
				c-3.41309-2.92578-3.69385-6.08105-3.32812-8.21289c0.6958-4.06055,4.13525-9.61621,21.70996-18.13672
				c-2.66406-0.32227-3.84961-1.02539-4.70068-1.75488c-3.76123-3.22363-3.65186-6.77441-3.25195-8.604
				c1.12109-5.12695,6.71143-12.68701,40.27344-25.75244c16.28125-6.33789,35.38232-12.45557,51.56299-17.29248
				c-18.86621-4.13525-37.82764-10.16162-43.02197-18.26221c-1.5-2.33936-1.95166-4.88574-1.30713-7.36426
				c0.36133-1.38965,1.53516-2.41748,2.96045-2.59229c126.2041-15.5083,159.77246,34.99268,161.13965,37.15039
				c0.69336,1.09326,0.72607,2.47998,0.08594,3.60449l-40.22266,70.67725c-0.46631,0.81934-1.24316,1.41504-2.15479,1.6543
				c-62.49658,16.37305-93.0791,24.02148-109.07812,27.27832C1086.03613,1020.78009,1081.49561,1021.4588,1078.34424,1021.4588z
				 M1076.83105,1014.32794c4.32617,1.67969,42.90332-7.91602,121.99023-28.63086l38.39404-67.46289
				c-4.43311-5.71777-15.60205-15.58057-35.02197-23.20068c-29.61768-11.62158-68.14404-14.81738-114.5459-9.50635
				c4.36816,5.90918,24.25439,12.61914,52.24658,17.59668c1.60449,0.28516,2.79932,1.63965,2.88281,3.26709
				c0.08301,1.62744-0.96826,3.09717-2.53516,3.54443c-17.94824,5.12207-43.74707,12.94238-64.72314,21.1084
				c-31.89014,12.41455-35.59766,19.00098-35.97461,20.72412c-0.05957,0.27246-0.16846,0.771,0.84277,1.68262
				c0.72217,0.28564,4.42529,1.1333,20.4209-1.32129c1.76562-0.27197,3.45215,0.83105,3.9126,2.55713
				c0.46045,1.72656-0.45312,3.52246-2.11914,4.16699c-32.93164,12.73926-36.45752,19.36914-36.75342,21.09766
				c-0.04102,0.2373-0.12354,0.71973,0.85742,1.60352c0.96631,0.38574,6.53564,1.53711,34.66357-3.79395
				c1.70703-0.3291,3.38818,0.65137,3.95801,2.29004c0.56934,1.63965-0.14844,3.44824-1.68652,4.25098
				c-13.20801,6.89551-14.26465,10.63867-14.34229,11.31836c-0.02051,0.18066-0.07324,0.64258,0.79834,1.4541
				c5.00732,1.61816,36.0542-4.69629,47.81641-7.09082c1.75146-0.35547,3.48535,0.66113,4.03076,2.36035
				s-0.2749,3.53613-1.9043,4.26465c-14.79443,6.6123-22.81982,11.84668-23.85352,15.55762
				c-0.14893,0.53418-0.13867,1.04688,0.39453,1.81445C1076.6416,1014.06915,1076.75781,1014.23615,1076.83105,1014.32794z
				 M1201.13428,988.70978h0.00977H1201.13428z M1040.30566,953.41534L1040.30566,953.41534L1040.30566,953.41534z"/>
		</g>
		<g>
			<path class="st2" d="M969.17188,1359.94617H557.44189c-1.93311,0-3.5-1.56738-3.5-3.5s1.56689-3.5,3.5-3.5h411.72998
				c6.62061,0,12.82129-2.93945,17.01221-8.06543s5.83936-11.78809,4.52344-18.27734L892.9126,844.4046
				c-2.06934-10.20215-11.12646-17.60693-21.53564-17.60693H68.12987c-6.62109,0-12.82178,2.93994-17.0127,8.06592
				c-4.19043,5.12598-5.83936,11.78711-4.52344,18.27588l97.79541,482.20026c2.06885,10.20215,11.12598,17.60645,21.53564,17.60645
				h218.63185c1.93311,0,3.5,1.56738,3.5,3.5s-1.56689,3.5-3.5,3.5H165.92479c-13.72559,0-25.66797-9.76367-28.396-23.21582
				L39.73338,854.53107c-1.73535-8.55615,0.43896-17.33936,5.96436-24.09814c5.52588-6.75879,13.70215-10.63525,22.43213-10.63525
				h803.24707c13.7251,0,25.66748,9.76367,28.396,23.21533l97.79492,482.19977c1.73535,8.55566-0.43896,17.33984-5.96484,24.09863
				C986.07764,1356.07019,977.90186,1359.94617,969.17188,1359.94617z"/>
		</g>
		<g>
			<path class="st2" d="M962.14307,1348.74597c-0.67578,0-1.35889-0.19531-1.96045-0.60254
				c-1.6001-1.08496-2.01807-3.26172-0.93311-4.86133c3.33301-4.91699,4.5166-10.83984,3.33252-16.67871L864.78711,844.4046
				c-0.50977-2.51416-1.44189-4.89355-2.771-7.07275c-1.00635-1.65039-0.48438-3.8042,1.16602-4.81055
				s3.80371-0.48389,4.81055,1.16602c1.75342,2.87549,2.98291,6.01318,3.65479,9.32617l97.79492,482.19928
				c1.56104,7.69727-0.00098,15.50977-4.39893,21.99707C964.3667,1348.20789,963.26465,1348.74597,962.14307,1348.74597z"/>
		</g>
		<g>
			<path class="st2" d="M660.3877,1464.70984h-256.0083c-12.53271,0-24.10645-5.69434-31.75391-15.62402
				c-7.64697-9.92969-10.19678-22.57324-6.99609-34.69043l56.40869-213.54688c0.49414-1.86914,2.40771-2.98438,4.27783-2.49023
				c1.86865,0.49316,2.9834,2.40918,2.48975,4.27734l-56.40869,213.54688c-2.6416,10.00098-0.53711,20.43652,5.77441,28.63184
				s15.86426,12.89551,26.20801,12.89551h256.0083c2.42578,0,4.54297-1.64062,5.14893-3.98828
				c1.16504-4.51465,0.1958-9.21777-2.65967-12.9043c-2.85547-3.68555-7.16748-5.7998-11.83008-5.7998H538.87012
				c-1.07617,0-2.09277-0.49512-2.75586-1.34277c-0.66357-0.84766-0.90039-1.95312-0.6416-2.99805l55.96631-226.22949
				c0.46387-1.87598,2.36182-3.02539,4.23779-2.55664c1.87646,0.46387,3.02148,2.36133,2.55713,4.23828l-54.89258,221.88867
				h107.70557c6.84375,0,13.17236,3.10254,17.36377,8.51367c4.19141,5.41016,5.61426,12.3125,3.9043,18.93945
				C670.91113,1460.91003,666.00635,1464.70984,660.3877,1464.70984z"/>
		</g>
		<g>
			<path class="st2" d="M921.76459,1518.67981H393.60562c2.17441,1.18359,4.3349,2.37195,6.53491,3.54626
				c171.50662,91.54492,349.90378,114.2179,521.62402,87.9259V1518.67981z"/>
		</g>
		<g>
			<path class="st3" d="M439.76971,842.57886l-30.50577-48.38428c-2.22302-3.52588-6.09967-5.66449-10.26782-5.66449H134.17439
				c-6.70377,0-12.13825-5.43451-12.13825-12.13831v-103.6098c0-6.7038,5.43448-12.13824,12.13825-12.13824h307.48865
				c6.7038,0,12.13828,5.43445,12.13828,12.13824v165.74274C453.80133,846.14618,443.8345,849.02588,439.76971,842.57886z"/>
		</g>
		<g>
			<path class="st1" d="M236.02043,242.77705c5.15721-8.93257,18.05028-8.93257,23.2075,0l44.69449,77.41313l44.69449,77.41315
				c5.15723,8.93256-1.28931,20.09827-11.60376,20.09827h-89.38898h-89.38899c-10.31444,0-16.76097-11.16571-11.60374-20.09827
				l44.69449-77.41315L236.02043,242.77705z"/>
		</g>
		<g>
			<path class="st2" d="M322.58984,403.38312H172.65868c-1.88086,0-3.6333-1.01172-4.57373-2.64062
				c-0.94043-1.62842-0.94043-3.65234,0-5.28125L243.05028,265.617c0.94043-1.62842,2.69238-2.64014,4.57275-2.64062
				c1.88086-0.00049,3.63379,1.01123,4.57471,2.63965l74.96584,129.84521c0.94043,1.62891,0.93994,3.65283-0.00049,5.28125
				C326.22314,402.3714,324.4707,403.38312,322.58984,403.38312z M175.63573,396.38312h143.97707l-71.98878-124.68799
				L175.63573,396.38312z M249.11278,269.117L249.11278,269.117L249.11278,269.117z M246.08153,267.367h0.00977H246.08153z"/>
		</g>
		<g>
			<path class="st2" d="M1456.34766,780.4007c-0.97363,0-1.94336-0.4043-2.63477-1.19531
				c-1.27344-1.45459-1.12598-3.66602,0.3291-4.93848c1.58984-1.39111,38.95215-34.08154,40.9375-35.71631
				c1.49121-1.22803,3.69824-1.01514,4.92676,0.47656c1.22852,1.49219,1.01465,3.69775-0.47754,4.92676
				c-1.52441,1.25586-27.33984,23.82324-40.77734,35.58105C1457.9873,780.11554,1457.16602,780.4007,1456.34766,780.4007z"/>
		</g>
		<g>
			<path class="st2" d="M1448.36133,757.4837c-0.97266,0-1.94141-0.40332-2.63281-1.19287
				c-1.27441-1.45361-1.12891-3.66504,0.3252-4.93896l59.0127-51.72607c1.45312-1.27344,3.66504-1.12891,4.93848,0.32471
				c1.27441,1.45361,1.12891,3.66504-0.3252,4.93896l-59.0127,51.72607
				C1450.00293,757.19806,1449.18066,757.4837,1448.36133,757.4837z"/>
		</g>
		<g>
			<path class="st2" d="M1438.26465,731.62091c-0.99512,0-1.9834-0.42188-2.67578-1.24121
				c-1.24707-1.47607-1.06152-3.68457,0.41504-4.93213l48.31543-40.82666c1.47656-1.24805,3.68457-1.0625,4.93262,0.41455
				c1.24707,1.47607,1.06152,3.68457-0.41504,4.93213l-48.31543,40.82666
				C1439.86426,731.34943,1439.0625,731.62091,1438.26465,731.62091z"/>
		</g>
		<g>
			<path class="st2" d="M1388.28711,941.1297c-1.88281,0-3.4375-1.49609-3.49609-3.39111
				c-0.06055-1.93213,1.45703-3.54688,3.38867-3.60742l100.46875-3.12744l-26.1084-89.23975
				c-0.54297-1.85547,0.52148-3.79932,2.37695-4.34229c1.85254-0.53809,3.79883,0.521,4.3418,2.37646l27.37793,93.58008
				c0.30371,1.03955,0.10938,2.16113-0.52637,3.03809c-0.63574,0.87646-1.6416,1.40967-2.72363,1.44336l-104.98828,3.26855
				C1388.36133,941.12921,1388.32422,941.1297,1388.28711,941.1297z"/>
		</g>
		<g>
			<path class="st2" d="M1476.7793,1087.12292c-0.18457,0-0.37305-0.01562-0.56152-0.0459
				c-44.85352-7.23926-95.67578-19.75879-151.05518-37.20898c-1.84375-0.58105-2.86719-2.5459-2.28662-4.38965
				c0.58057-1.84473,2.54639-2.86719,4.39014-2.28613c55.05713,17.34863,105.54736,29.78809,150.06689,36.97461
				c1.9082,0.30762,3.20605,2.10449,2.89746,4.0127C1479.95312,1085.89929,1478.4668,1087.12292,1476.7793,1087.12292z"/>
		</g>
		<g>
			<path class="st2" d="M1241.35352,921.53302c-0.58057,0-1.16943-0.14453-1.71191-0.44971
				c-1.68506-0.94727-2.28271-3.08105-1.33545-4.76611c11.69238-20.79639,32.36182-53.26855,52.65771-82.72754
				c9.65869-14.01953,18.23535-25.91016,24.80322-34.38721c11.58398-14.9502,13.70947-15.33447,16.22461-14.7251
				c1.76904,0.43066,2.95557,1.97461,3.02393,3.93359c0.06738,1.93213-1.44336,3.55273-3.37549,3.62012
				c-0.22266,0.00928-0.43896-0.00488-0.64941-0.0376c-10.62451,9.6333-62.68457,85.24951-86.58301,127.75439
				C1243.76514,920.89044,1242.57715,921.53302,1241.35352,921.53302z"/>
		</g>
		<g>
			<path class="st2" d="M1178.58398,1161.29187c-21.15576,0-41.84082-4.91016-60.97559-14.5957
				c-1.72461-0.87305-2.41504-2.97949-1.54199-4.7041c0.87256-1.72363,2.97803-2.41309,4.70312-1.54199
				c53.82666,27.24707,119.85449,13.59277,160.56787-33.20215c18.52832-21.2959,52.90283-77.69336,85.53662-140.33795
				c37.92871-72.80762,52.77539-113.80322,50.66309-122.13428c-0.47461-1.87354,0.65918-3.77734,2.53223-4.25244
				c1.87402-0.47412,3.77832,0.6582,4.25293,2.53271c4.5459,17.93018-38.07031,101.80762-51.24023,127.08838
				c-27.34766,52.49707-64.68896,116.67096-86.46338,141.69733c-20.30713,23.33984-48.14551,39.77051-78.38721,46.26465
				C1198.31982,1160.23523,1188.40088,1161.29187,1178.58398,1161.29187z"/>
		</g>
		<g>
			<path class="st2" d="M1388.75781,858.83575c-23.36133,0-36.3125-9.22852-36.90625-9.66113
				c-1.56152-1.13916-1.9043-3.32861-0.76562-4.89014c1.13672-1.55908,3.31738-1.90381,4.87988-0.77344l0,0
				c0.1416,0.10107,14.44629,10.13037,39.84766,8.02832c1.91895-0.16504,3.61621,1.27197,3.77734,3.19824
				c0.15918,1.92627-1.27246,3.61768-3.19922,3.77734C1393.73633,858.73566,1391.19043,858.83575,1388.75781,858.83575z"/>
		</g>
		<g>
			<path class="st2" d="M1507.16016,965.58966c-1.2832,0-2.51953-0.70898-3.13281-1.93457l-13.87988-27.72705
				c-0.60645-1.21094-0.45898-2.66309,0.37695-3.72803c0.83594-1.06543,2.20996-1.55273,3.53125-1.25098l22.09766,5.04199
				c1.88477,0.42969,3.06445,2.30615,2.63379,4.19092c-0.43066,1.88379-2.31055,3.06396-4.19043,2.6333l-14.87207-3.39307
				l10.5625,21.1001c0.86523,1.72852,0.16504,3.83105-1.56348,4.69629
				C1508.2207,965.47052,1507.68652,965.58966,1507.16016,965.58966z"/>
		</g>
		<g>
			<path class="st2" d="M1602.52539,1035.95886c-0.62695,0-1.26172-0.16797-1.83398-0.52246
				c-1.64355-1.01465-2.15527-3.16699-1.1416-4.81152c0.33008-0.53613,8.21875-13.17975,18.72754-16.03912
				c1.86719-0.50879,3.78809,0.59375,4.2959,2.45801c0.50781,1.86523-0.59277,3.78809-2.45801,4.2959
				c-6.49414,1.76758-12.74707,9.95514-14.6084,12.96002C1604.84473,1035.37,1603.69824,1035.95886,1602.52539,1035.95886z"/>
		</g>
		<g>
			<path class="st2" d="M1174.05469,637.34357c-0.20654,0-0.41602-0.01807-0.62695-0.05615
				c-64.60254-11.68359-95.66016-18.60254-95.96631-18.6709c-1.88672-0.42236-3.07324-2.29346-2.65137-4.17969
				c0.42188-1.88672,2.29297-3.07422,4.17969-2.65137c0.30518,0.06836,31.24805,6.96045,95.68408,18.61328
				c1.90186,0.34424,3.16504,2.16504,2.82129,4.06738C1177.18896,636.15753,1175.71533,637.34357,1174.05469,637.34357z"/>
		</g>
		<g>
			<path class="st2" d="M1126.13916,856.44952c-1.38525,0-2.69629-0.82764-3.24658-2.19141l-36.94482-91.55176
				c-0.36523-0.90479-0.33594-1.9209,0.08057-2.80371l9.50879-20.14453c0.8252-1.74756,2.91162-2.49658,4.65918-1.6709
				c1.74805,0.8252,2.49609,2.91113,1.6709,4.65918l-8.85547,18.76025l36.37207,90.13232
				c0.72363,1.79248-0.14307,3.83203-1.93604,4.55518C1127.01904,856.36749,1126.5752,856.44952,1126.13916,856.44952z"/>
		</g>
		<g>
			<path class="st2" d="M1089.19189,764.89679c-0.81445,0-1.63232-0.28271-2.29541-0.85889l-15.37549-13.37012
				c-1.4585-1.26855-1.61279-3.479-0.34424-4.93799c1.26758-1.45752,3.479-1.6123,4.93799-0.34424l15.37549,13.37012
				c1.4585,1.26855,1.61279,3.479,0.34424,4.93799C1091.14258,764.48907,1090.16992,764.89679,1089.19189,764.89679z"/>
		</g>
		<g>
			<path class="st2" d="M368.25146,692.89972H175.19334c-1.93311,0-3.5-1.56689-3.5-3.5s1.56689-3.5,3.5-3.5h193.05812
				c1.93311,0,3.5,1.56689,3.5,3.5S370.18457,692.89972,368.25146,692.89972z"/>
		</g>
		<g>
			<path class="st2" d="M368.25146,727.85382H175.19334c-1.93311,0-3.5-1.56689-3.5-3.5s1.56689-3.5,3.5-3.5h193.05812
				c1.93311,0,3.5,1.56689,3.5,3.5S370.18457,727.85382,368.25146,727.85382z"/>
		</g>
		<g>
			<path class="st2" d="M368.25146,762.80792H175.19334c-1.93311,0-3.5-1.56689-3.5-3.5s1.56689-3.5,3.5-3.5h193.05812
				c1.93311,0,3.5,1.56689,3.5,3.5S370.18457,762.80792,368.25146,762.80792z"/>
		</g>
		<g>
			<path class="st2" d="M563.6001,643.86456c-5.23486,0-10.0708-2.63184-13.03662-7.33594l-22.13086-35.10205
				c-1.5918-2.52441-4.32373-4.03125-7.30762-4.03125H322.48193c-8.62305,0-15.63867-7.01514-15.63867-15.63818V478.14728
				c0-8.62305,7.01562-15.63818,15.63867-15.63818h241.31006c8.62305,0,15.63818,7.01514,15.63818,15.63818v150.04053
				c0,7.14404-4.43457,13.04102-11.29785,15.02393C566.61182,643.65118,565.08984,643.86456,563.6001,643.86456z
				 M322.48193,469.50909c-4.76318,0-8.63867,3.875-8.63867,8.63818v103.60986c0,4.76318,3.87549,8.63818,8.63867,8.63818H521.125
				c5.40186,0,10.34766,2.72803,13.22852,7.29785l22.13135,35.10205l0,0c2.5542,4.05078,6.68848,4.56348,9.70459,3.69189
				c3.01709-0.87158,6.24072-3.50977,6.24072-8.29932V478.14728c0-4.76318-3.875-8.63818-8.63818-8.63818H322.48193z"/>
		</g>
		<g>
			<path class="st2" d="M517.29883,500.95831H351.55518c-1.93311,0-3.5-1.56689-3.5-3.5s1.56689-3.5,3.5-3.5h165.74365
				c1.93311,0,3.5,1.56689,3.5,3.5S519.23193,500.95831,517.29883,500.95831z"/>
		</g>
		<g>
			<path class="st2" d="M517.29883,531.78156H351.55518c-1.93311,0-3.5-1.56689-3.5-3.5s1.56689-3.5,3.5-3.5h165.74365
				c1.93311,0,3.5,1.56689,3.5,3.5S519.23193,531.78156,517.29883,531.78156z"/>
		</g>
		<g>
			<path class="st2" d="M517.29883,562.6048H422.1582c-1.93311,0-3.5-1.56689-3.5-3.5s1.56689-3.5,3.5-3.5h95.14062
				c1.93311,0,3.5,1.56689,3.5,3.5S519.23193,562.6048,517.29883,562.6048z"/>
		</g>
		<g>
			<path class="st2" d="M247.62401,381.784c-1.93311,0-3.5-1.56689-3.5-3.5v-8.10205c0-1.93311,1.56689-3.5,3.5-3.5
				s3.5,1.56689,3.5,3.5v8.10205C251.12401,380.2171,249.55711,381.784,247.62401,381.784z"/>
		</g>
		<g>
			<path class="st2" d="M247.62401,354.70001c-1.93311,0-3.5-1.56689-3.5-3.5v-40.97266c0-1.93311,1.56689-3.5,3.5-3.5
				s3.5,1.56689,3.5,3.5v40.97266C251.12401,353.13312,249.55711,354.70001,247.62401,354.70001z"/>
		</g>
		<g>
			<path class="st2" d="M706.05322,778.25616h-81.25146c-3.95996,0-7.78467-1.65771-10.49365-4.54785
				c-2.74658-2.93115-4.11572-6.76074-3.85498-10.78369c0.48828-7.5293,6.95508-13.42773,14.72168-13.42773
				c1.24707,0,2.26172-1.01465,2.26172-2.26172v-50.95264c0-20.94824,17.04297-37.99121,37.99121-37.99121
				s37.99121,17.04297,37.99121,37.99121v50.95264c0,1.24707,1.01416,2.26172,2.26123,2.26172
				c7.76709,0,14.23389,5.89844,14.72217,13.42773c0.26074,4.02295-1.10889,7.85303-3.85596,10.78369
				C713.8374,776.59845,710.0127,778.25616,706.05322,778.25616z M665.42773,665.29132
				c-17.08838,0-30.99121,13.90283-30.99121,30.99121v50.95264c0,5.10693-4.15479,9.26172-9.26172,9.26172
				c-4.08789,0-7.48633,3.02246-7.73633,6.88086c-0.13428,2.0708,0.56787,4.03955,1.97754,5.54346
				c1.41113,1.50586,3.32373,2.33496,5.38574,2.33496h81.25146c2.06201,0,3.97461-0.8291,5.38574-2.33496
				c1.40967-1.50391,2.1123-3.47266,1.97803-5.54346c-0.25-3.8584-3.64844-6.88086-7.73682-6.88086
				c-5.10645,0-9.26123-4.15479-9.26123-9.26172v-50.95264C696.41895,679.19415,682.51611,665.29132,665.42773,665.29132z"/>
		</g>
		<g>
			<path class="st2" d="M680.3584,756.43878h-18.57666c-1.93311,0-3.5-1.56689-3.5-3.5s1.56689-3.5,3.5-3.5h18.57666
				c1.93311,0,3.5,1.56689,3.5,3.5S682.2915,756.43878,680.3584,756.43878z"/>
		</g>
		<g>
			<path class="st2" d="M652.32471,667.86945c-1.37988,0-2.68652-0.82031-3.23926-2.17725
				c-0.2207-0.5415-5.3374-13.35547,0.33057-21.78564c3.01025-4.47754,8.21582-6.74756,15.47119-6.74756
				c7.33594,0,12.50342,2.2627,15.3584,6.72559c5.20996,8.14453,0.04639,19.88818-0.55957,21.20068
				c-0.80957,1.75488-2.8877,2.52246-4.64502,1.71045c-1.75488-0.81055-2.52051-2.89014-1.71045-4.64502
				c1.19238-2.6084,3.70459-10.31201,1.01221-14.50342c-1.4873-2.31445-4.66846-3.48828-9.45557-3.48828
				c-4.77441,0-8.02295,1.22559-9.65479,3.64258c-2.98438,4.42041-0.76807,12.51074,0.33789,15.25537
				c0.72168,1.79053-0.1416,3.83008-1.93066,4.55518C653.2085,667.78693,652.7627,667.86945,652.32471,667.86945z"/>
		</g>
		<g>
			<circle class="st3" cx="720.98395" cy="687.48633" r="37.15334"/>
		</g>
		<g>
			<path class="st2" d="M720.98389,713.12189c-1.93311,0-3.5-1.56689-3.5-3.5v-1.99658c0-1.93311,1.56689-3.5,3.5-3.5
				s3.5,1.56689,3.5,3.5v1.99658C724.48389,711.55499,722.91699,713.12189,720.98389,713.12189z"/>
		</g>
		<g>
			<path class="st2" d="M720.98389,696.45538c-1.93311,0-3.5-1.56689-3.5-3.5V665.3504c0-1.93311,1.56689-3.5,3.5-3.5
				s3.5,1.56689,3.5,3.5v27.60498C724.48389,694.88849,722.91699,696.45538,720.98389,696.45538z"/>
		</g>
		<g>
			<path class="st3" d="M252.1367,649.3924c-2.23486,0-2.98926-1.8833-3.85205-4.0376
				c-0.46729-1.1665-1.13086-2.83301-1.92578-4.83252c-1.58789-3.99414-3.69873-9.32031-5.80762-14.64648
				c-4.21729-10.65039-8.42676-21.30176-8.42676-21.30176c-0.71045-1.79785,0.1709-3.83105,1.96826-4.5415
				c1.7998-0.71191,3.83105,0.1709,4.5415,1.96826c6.4873,16.41504,16.32324,41.26318,16.83154,42.43945l-3.19678,1.38232
				l0.00879,0.05859l0.45898,3.46973C252.52586,649.37872,252.32567,649.3924,252.1367,649.3924z"/>
		</g>
		<g>
			<path class="st3" d="M601.93262,482.25909c-1.32471,0-2.5918-0.75586-3.18164-2.03857
				c-0.80762-1.75635-0.03906-3.83447,1.71729-4.64209l48.30566-22.21533c1.75537-0.80615,3.83447-0.03955,4.64209,1.71729
				c0.80762,1.75635,0.03906,3.83447-1.71729,4.64209l-48.30566,22.21533
				C602.91943,482.15558,602.42236,482.25909,601.93262,482.25909z"/>
		</g>
		<g>
			<path class="st3" d="M358.98828,373.68243c-1.63135,0-3.0918-1.14697-3.42676-2.80811
				c-0.38281-1.89453,0.84326-3.74072,2.73828-4.12305l56.19287-11.34277c1.89062-0.38672,3.74072,0.84375,4.12305,2.73828
				c0.38281,1.89453-0.84326,3.74072-2.73828,4.12305l-56.19287,11.34277
				C359.45117,373.65997,359.21777,373.68243,358.98828,373.68243z"/>
		</g>
		<g>
			<path class="st3" d="M355.75439,354.7005c-1.10059,0-2.18457-0.51807-2.86572-1.48682
				c-1.1123-1.58154-0.73193-3.76465,0.84912-4.87646l87.38525-61.45898c1.58008-1.1123,3.76465-0.73193,4.87646,0.84912
				c1.1123,1.58154,0.73193,3.76465-0.84912,4.87646l-87.38525,61.45898C357.15283,354.49347,356.4502,354.7005,355.75439,354.7005z
				"/>
		</g>
		<g>
			<path class="st2" d="M183.53954,1242.58191l-4.5835-22.60156c-0.38379-1.89453,0.84082-3.74219,2.73535-4.12598
				c1.89209-0.37695,3.7417,0.8418,4.125,2.73535l4.5835,22.60156L183.53954,1242.58191z"/>
		</g>
		<g>
			<path class="st2" d="M223.79442,1242.58191l-4.58398-22.60156c-0.38379-1.89453,0.84082-3.74219,2.73535-4.12598
				c1.89404-0.37695,3.7417,0.8418,4.125,2.73535l4.58398,22.60156L223.79442,1242.58191z"/>
		</g>
		<g>
			<path class="st2" d="M264.04883,1242.58191l-4.58398-22.60156c-0.38379-1.89453,0.84082-3.74219,2.73535-4.12598
				c1.89258-0.37695,3.7417,0.8418,4.125,2.73535l4.58398,22.60156L264.04883,1242.58191z"/>
		</g>
		<g>
			<path class="st2" d="M304.30322,1242.58191l-4.5835-22.60156c-0.38379-1.89453,0.84082-3.74219,2.73535-4.12598
				c1.89404-0.37695,3.7417,0.8418,4.125,2.73535l4.5835,22.60156L304.30322,1242.58191z"/>
		</g>
		<g>
			<path class="st2" d="M344.55762,1242.58191l-4.5835-22.60156c-0.38379-1.89453,0.84082-3.74219,2.73535-4.12598
				c1.89209-0.37695,3.7417,0.8418,4.125,2.73535l4.5835,22.60156L344.55762,1242.58191z"/>
		</g>
		<g>
			<polygon class="st2" points="597.65314,1209.1991 609.80609,1356.4458 560.15259,1356.4458 			"/>
		</g>
		<g>
			<path class="st2" d="M697.65479,1234.08582h-18.98193c-1.93311,0-3.5-1.56738-3.5-3.5s1.56689-3.5,3.5-3.5h18.98193
				c1.93311,0,3.5,1.56738,3.5,3.5S699.58789,1234.08582,697.65479,1234.08582z"/>
		</g>
		<g>
			<path class="st2" d="M774.04492,1234.08582h-18.98193c-1.93311,0-3.5-1.56738-3.5-3.5s1.56689-3.5,3.5-3.5h18.98193
				c1.93311,0,3.5,1.56738,3.5,3.5S775.97803,1234.08582,774.04492,1234.08582z"/>
		</g>
		<g>
			<path class="st2" d="M850.43457,1234.08582h-18.98145c-1.93311,0-3.5-1.56738-3.5-3.5s1.56689-3.5,3.5-3.5h18.98145
				c1.93311,0,3.5,1.56738,3.5,3.5S852.36768,1234.08582,850.43457,1234.08582z"/>
		</g>
		<g>
			<path class="st2" d="M1002.45801,1522.17957H393.60547c-1.93311,0-3.5-1.56738-3.5-3.5s1.56689-3.5,3.5-3.5h605.35254v-50.46973
				H302.61523c-1.93311,0-3.5-1.56738-3.5-3.5s1.56689-3.5,3.5-3.5h699.84277c1.93311,0,3.5,1.56738,3.5,3.5v57.46973
				C1005.95801,1520.61218,1004.39111,1522.17957,1002.45801,1522.17957z"/>
		</g>
		<g>
			<path class="st2" d="M921.76465,1480.41101H896.5c-1.93311,0-3.5-1.56738-3.5-3.5s1.56689-3.5,3.5-3.5h25.26465
				c1.93311,0,3.5,1.56738,3.5,3.5S923.69775,1480.41101,921.76465,1480.41101z"/>
		</g>
		<g>
			<path class="st2" d="M874.74072,1480.41101h-53.47314c-1.93311,0-3.5-1.56738-3.5-3.5s1.56689-3.5,3.5-3.5h53.47314
				c1.93311,0,3.5,1.56738,3.5,3.5S876.67383,1480.41101,874.74072,1480.41101z"/>
		</g>
		<g>
			<path class="st2" d="M395.56934,1391.98523c-0.28516,0-0.57471-0.03516-0.86377-0.1084
				c-1.87354-0.47559-3.00684-2.38086-2.53076-4.25391l7.40723-29.16699c0.47559-1.87402,2.38135-3.00488,4.25342-2.53125
				c1.87354,0.47559,3.00684,2.38086,2.53076,4.25391l-7.40723,29.16699
				C398.55664,1390.93054,397.13281,1391.98523,395.56934,1391.98523z"/>
		</g>
		<g>
			<path class="st2" d="M142.32225,847.53156H95.56248c-1.93311,0-3.5-1.56689-3.5-3.5s1.56689-3.5,3.5-3.5h46.75977
				c1.93311,0,3.5,1.56689,3.5,3.5S144.25536,847.53156,142.32225,847.53156z"/>
		</g>
		<g>
			<path class="st2" d="M175.19334,847.53156h-4.62988c-1.93311,0-3.5-1.56689-3.5-3.5s1.56689-3.5,3.5-3.5h4.62988
				c1.93311,0,3.5,1.56689,3.5,3.5S177.12645,847.53156,175.19334,847.53156z"/>
		</g>
		<g>
			<path class="st3" d="M590.24512,461.87775c-0.87598,0-1.75244-0.32666-2.43213-0.98389
				c-1.38965-1.34326-1.42725-3.55908-0.0835-4.94873l62.26953-64.41113c1.34375-1.39062,3.55908-1.42773,4.94873-0.0835
				c1.38965,1.34326,1.42725,3.55908,0.0835,4.94873l-62.26953,64.41113
				C592.0752,461.52081,591.16064,461.87775,590.24512,461.87775z"/>
		</g>
		<g>
			<path class="st3" d="M567.7915,451.22931c-1.93311,0-3.5-1.56689-3.5-3.5v-24c0-1.93311,1.56689-3.5,3.5-3.5s3.5,1.56689,3.5,3.5
				v24C571.2915,449.66241,569.72461,451.22931,567.7915,451.22931z"/>
		</g>
		<g>
			<path class="st3" d="M633.53418,653.8338c-0.34375,0-0.69385-0.05127-1.03955-0.15869l-18.05566-5.60986
				c-1.8457-0.57324-2.87744-2.53467-2.30371-4.38086c0.57373-1.84521,2.53418-2.87646,4.38086-2.30371l18.05566,5.60986
				c1.8457,0.57324,2.87744,2.53467,2.30371,4.38086C636.40967,652.8714,635.02686,653.8338,633.53418,653.8338z"/>
		</g>
		<g>
			<path class="st3" d="M641.40576,636.88019c-0.99902,0-1.99121-0.42529-2.68359-1.25098l-33.10254-39.46826
				c-1.24219-1.48096-1.04834-3.68848,0.43262-4.93066c1.48145-1.24219,3.68799-1.04883,4.93066,0.43262l33.10254,39.46826
				c1.24219,1.48096,1.04834,3.68848-0.43262,4.93066C642.99707,636.61163,642.19922,636.88019,641.40576,636.88019z"/>
		</g>
		<g>
			<path class="st3" d="M271.71777,644.15948c-1.74805,0-3.25928-1.30762-3.47119-3.08643l-10.4165-87.48047
				c-0.22852-1.91943,1.14209-3.66113,3.06152-3.88965c1.91602-0.22949,3.66113,1.14209,3.88965,3.06152l10.4165,87.48047
				c0.22852,1.91943-1.14209,3.66113-3.06152,3.88965C271.99561,644.15118,271.85596,644.15948,271.71777,644.15948z"/>
		</g>
		<g>
			<path class="st3" d="M292.09277,645.67755c-0.41162,0-0.82959-0.07324-1.2373-0.22705
				c-1.80811-0.68359-2.71973-2.70361-2.03613-4.51172l7.63867-20.20361c0.68408-1.80762,2.7041-2.71777,4.51172-2.03613
				c1.80811,0.68359,2.71973,2.70361,2.03613,4.51172l-7.63867,20.20361
				C294.8374,644.81476,293.50635,645.67755,292.09277,645.67755z"/>
		</g>
		<g>
			<path class="st3" d="M659.92236,629.93585c-1.93311,0-3.5-1.56689-3.5-3.5v-14.29443c0-1.93311,1.56689-3.5,3.5-3.5
				s3.5,1.56689,3.5,3.5v14.29443C663.42236,628.36896,661.85547,629.93585,659.92236,629.93585z"/>
		</g>
		<g>
			<path class="st3" d="M342.32422,343.35822c-0.42334,0-0.854-0.07715-1.27197-0.24072
				c-1.80078-0.70312-2.69043-2.73291-1.9873-4.5332l9.49072-24.30566c0.70312-1.80029,2.73438-2.69043,4.5332-1.9873
				c1.80078,0.70312,2.69043,2.73291,1.9873,4.5332l-9.49072,24.30566C345.0459,342.51251,343.72412,343.35822,342.32422,343.35822z
				"/>
		</g>
		<g>
			<path class="st2" d="M1510.79492,195.84406h-24.2168c-1.93262,0-3.5-1.56689-3.5-3.5s1.56738-3.5,3.5-3.5h24.2168
				c1.93262,0,3.5,1.56689,3.5,3.5S1512.72754,195.84406,1510.79492,195.84406z"/>
		</g>
		<g>
			<path class="st2" d="M1649.28906,222.87433h-5.90234c-1.93262,0-3.5-1.56689-3.5-3.5s1.56738-3.5,3.5-3.5h5.90234
				c1.93262,0,3.5,1.56689,3.5,3.5S1651.22168,222.87433,1649.28906,222.87433z"/>
		</g>
		<g>
			<path class="st3" d="M900.33203,603.84552c-0.87891,0-1.72998-0.32031-2.40088-0.93652
				c-1.04492-0.95947-1.4126-2.41455-0.95996-3.79736c1.11279-3.39893,21.35693-24.44434,57.76367-28.4707
				c1.92725-0.20361,3.65088,1.17334,3.86377,3.09424c0.2124,1.92139-1.17285,3.65088-3.09424,3.86377
				c-30.60303,3.38428-48.49463,19.69092-51.68408,23.6123c-0.26709,1.01025-0.98096,1.89062-2.01758,2.33008
				C901.32178,603.74542,900.82275,603.84552,900.33203,603.84552z"/>
		</g>
		<g>
			<path class="st3" d="M1660.5625,1001.23712c-0.08301,0-0.16602-0.00293-0.25-0.00879
				c-1.92773-0.13574-3.38086-1.80859-3.24512-3.7373c3.73535-53.07715-27.74414-105.94922-28.0625-106.47705
				c-0.99902-1.65479-0.4668-3.80566,1.1875-4.80469c1.65625-0.99854,3.80469-0.46826,4.80469,1.18652
				c1.34668,2.22998,32.94727,55.25586,29.05273,110.5874C1663.91992,999.82697,1662.38281,1001.23712,1660.5625,1001.23712z"/>
		</g>
		<g>
			<path class="st3" d="M1532.62109,338.16193c-0.82422,0-1.62891-0.29102-2.26758-0.83398l-40.16309-34.15723
				c-1.47266-1.25195-1.65137-3.46094-0.39844-4.93359s3.46191-1.65039,4.93359-0.39844l36.88965,31.37305l9.85645-18.00586
				c0.92871-1.6958,3.05664-2.31934,4.75098-1.38916c1.69531,0.92822,2.31738,3.05518,1.38965,4.75049l-11.9209,21.77539
				c-0.50586,0.92334-1.39941,1.56982-2.43457,1.76123C1533.04492,338.14288,1532.83203,338.16193,1532.62109,338.16193z"/>
		</g>
	</g>
</g>
</svg>
